<svg version="1.1" id="Layer_1" xmlns="http://www.w3.org/2000/svg" xmlns:xlink="http://www.w3.org/1999/xlink" x="0px" y="0px"
	 width="100%" viewBox="0 0 192 192" enable-background="new 0 0 192 192" xml:space="preserve">
<path fill="#000000" opacity="1.000000" stroke="none" 
	d="
M162.404648,178.479736 
	C172.869843,179.074188 177.564575,181.622604 179.474762,188.377533 
	C169.330276,180.102585 158.142181,182.293015 147.113419,182.811096 
	C133.136276,183.467728 119.138756,183.880432 105.257118,181.404785 
	C103.791489,181.143402 102.222878,180.947174 100.938942,180.270935 
	C96.193161,177.771362 91.542038,176.014709 85.839600,176.851959 
	C81.622833,177.471085 78.390465,174.510223 76.142365,170.879700 
	C74.739159,168.613602 73.310043,166.363403 71.877869,164.115448 
	C70.870956,162.535004 69.843979,161.004166 67.545349,161.525040 
	C65.504463,161.987534 64.633530,163.391357 63.944164,165.248474 
	C62.994911,167.805725 63.088356,170.870026 60.688938,172.856689 
	C57.964802,171.400467 59.497173,169.263367 59.628803,167.479202 
	C59.815697,164.945999 58.964436,163.204910 56.437553,162.602005 
	C53.723724,161.954468 53.049248,164.014877 52.343861,165.930756 
	C52.114052,166.554916 51.956322,167.205215 51.743698,167.836182 
	C49.373890,174.868622 47.458538,182.314484 37.444408,182.393906 
	C37.025036,180.665283 35.407146,179.430740 32.652031,180.603760 
	C32.887878,176.707352 37.543358,175.259644 36.301121,170.514725 
	C27.805510,173.731003 19.429771,176.901901 10.726471,180.196808 
	C10.403124,176.170456 15.247991,174.708862 14.249901,170.770309 
	C10.791492,169.933670 7.998406,173.014618 4.377301,172.459396 
	C4.909753,169.837448 8.129566,168.221191 5.457464,164.645630 
	C4.149574,162.895538 8.763931,159.872498 10.674712,157.415207 
	C12.680453,154.835770 14.427672,152.494781 9.180457,151.506241 
	C10.506763,148.483963 14.043674,146.381943 10.615599,142.372681 
	C16.698204,146.022614 20.052216,141.981293 23.635075,139.581146 
	C29.191877,135.858688 22.862053,131.503693 23.770241,127.483139 
	C26.530148,126.464989 27.966461,129.632385 30.745543,129.151184 
	C33.968800,124.018448 28.541430,118.977989 29.849957,113.697006 
	C32.179169,114.093315 32.615517,115.876717 33.062305,117.364647 
	C33.727249,119.579094 33.768330,121.996803 34.550938,124.155426 
	C35.304741,126.234612 34.437508,130.304169 37.947094,129.686462 
	C41.203205,129.113373 41.199154,125.320473 40.869366,122.550041 
	C40.062481,115.771667 41.981548,113.659866 48.412128,114.810425 
	C50.992851,115.272163 59.396412,108.530739 59.416599,105.934578 
	C59.432175,103.930794 57.728806,103.205521 56.435951,102.226410 
	C51.198017,98.259628 46.351170,94.015373 44.404812,87.358261 
	C43.010109,82.587975 44.163841,80.964249 49.088795,80.598732 
	C59.141937,79.852615 68.131508,83.336876 76.745674,87.792908 
	C80.497818,89.733856 83.548378,89.996773 86.798653,87.326340 
	C87.309219,86.906853 87.952705,86.652626 88.484215,86.254539 
	C91.270187,84.167862 95.939690,83.695442 94.961609,78.325089 
	C94.841995,77.668320 96.540916,76.473969 97.036842,75.171463 
	C98.010323,72.614731 102.951073,71.731262 101.406876,68.618820 
	C99.157761,64.085533 98.278404,58.414932 92.683495,55.892071 
	C90.507149,54.910721 87.858398,53.661255 87.205292,49.493153 
	C93.727692,52.821110 101.056862,53.197731 103.481056,61.127010 
	C104.968002,65.990654 108.457047,66.373009 112.592171,64.620483 
	C114.425270,63.843586 116.206383,62.944130 118.012047,62.102356 
	C120.519562,60.933392 122.825752,61.115555 123.631332,64.045441 
	C124.782875,68.233589 127.299347,67.807358 130.558548,66.972824 
	C144.305542,63.452801 158.058945,62.510307 171.857834,66.991409 
	C190.858887,73.161880 196.537643,91.049393 184.333145,106.882423 
	C177.211105,116.121910 167.298843,121.598953 157.164841,126.791069 
	C142.436920,134.336884 126.649490,139.227814 111.334053,145.300888 
	C109.065773,146.200363 105.605644,146.855377 106.946892,150.073792 
	C108.547813,153.915314 106.452698,160.281174 113.433594,160.942200 
	C122.689857,161.818695 132.052841,161.932587 141.038727,164.747742 
	C144.001816,165.676041 147.091873,166.330719 149.506454,169.214615 
	C144.965790,168.507126 140.442078,167.650101 135.879837,167.133148 
	C131.084244,166.589752 126.250137,166.071640 121.435852,166.097580 
	C116.775841,166.122696 111.877625,165.411758 107.442047,167.782166 
	C108.021980,171.631104 110.890930,172.319122 113.223564,173.233490 
	C125.874153,178.192307 139.143372,178.759720 152.502060,178.288361 
	C155.669601,178.176590 158.812927,177.838394 162.404648,178.479736 
M154.326431,77.769905 
	C156.412994,77.461510 158.920090,78.570099 160.546341,76.171700 
	C156.718063,72.888039 147.226944,73.373383 144.054581,77.103226 
	C147.232330,78.181030 150.363861,77.617462 154.326431,77.769905 
z"/>
<path fill="#000000" opacity="1.000000" stroke="none" 
	d="
M73.663239,51.239655 
	C75.356400,52.919811 77.508057,53.847485 77.686989,56.692375 
	C74.737671,56.625729 73.018135,54.527279 70.801765,53.644207 
	C68.420685,52.695511 66.016953,51.699474 63.769600,53.615746 
	C61.598793,55.466751 63.198643,57.583111 63.720379,59.595917 
	C63.831959,60.026390 63.736652,60.510490 63.189041,61.406155 
	C57.950218,54.743195 52.755314,48.123322 45.201019,43.757774 
	C46.941147,42.214096 47.980522,43.002480 49.005489,43.416279 
	C54.251972,45.534363 59.529133,47.318798 65.318001,47.468525 
	C68.303017,47.545734 71.124344,48.851933 73.663239,51.239655 
z"/>
<path fill="#000000" opacity="1.000000" stroke="none" 
	d="
M35.373016,101.210655 
	C37.687454,102.462936 39.930565,103.244560 40.980999,106.181015 
	C34.701870,105.452217 28.356390,101.104149 23.189335,108.279198 
	C20.418522,104.723099 15.920122,104.609856 12.123380,102.673317 
	C19.874779,102.146393 27.204403,98.168732 35.373016,101.210655 
z"/>
<path fill="#000000" opacity="1.000000" stroke="none" 
	d="
M101.906494,41.729935 
	C97.869751,40.247375 95.922821,42.037979 95.136597,46.719002 
	C91.256859,40.830555 90.140877,35.227280 88.255630,29.589695 
	C93.117722,35.001892 100.262054,36.657684 105.610283,41.086159 
	C104.686317,43.281872 103.380203,42.086311 101.906494,41.729935 
z"/>
<path fill="#000000" opacity="1.000000" stroke="none" 
	d="
M35.676178,64.956543 
	C36.500359,58.665268 37.211769,57.307301 41.601982,54.504314 
	C38.590816,61.362183 39.055912,67.692871 40.021980,74.875504 
	C36.559742,71.891403 36.308411,68.556435 35.676178,64.956543 
z"/>
<path fill="#000000" opacity="1.000000" stroke="none" 
	d="
M91.977234,70.071167 
	C90.531601,70.776253 89.824730,73.344704 88.199326,71.677864 
	C86.590858,70.028397 86.030220,67.727829 87.165764,65.373039 
	C92.847656,67.249260 92.847656,67.249260 91.977234,70.071167 
z"/>
<path fill="#000000" opacity="1.000000" stroke="none" 
	d="
M109.235458,52.300972 
	C109.318550,49.828579 110.656952,49.575981 112.300209,50.231068 
	C113.637573,50.764214 115.264915,51.125484 115.332680,53.085987 
	C115.388359,54.697136 115.941017,56.369282 114.263985,58.424801 
	C114.337425,54.605320 111.673920,53.794266 109.235458,52.300972 
z"/>
<path fill="#000000" opacity="1.000000" stroke="none" 
	d="
M49.203712,106.548195 
	C53.844265,110.971878 46.129879,109.548889 47.571785,112.506081 
	C45.129025,111.457634 44.494099,110.028160 45.000549,108.299187 
	C45.549618,106.424744 47.058022,105.956558 49.203712,106.548195 
z"/>
<path fill="#000000" opacity="1.000000" stroke="none" 
	d="
M14.053436,136.947418 
	C13.827497,135.566513 13.102634,134.071945 14.466816,133.647659 
	C16.109068,133.136871 17.552105,134.110092 18.785709,135.744217 
	C17.360085,136.741531 17.322052,140.910797 14.053436,136.947418 
z"/>
<path fill="#000000" opacity="1.000000" stroke="none" 
	d="
M70.278900,175.421265 
	C69.855141,177.352661 68.918945,178.673904 67.176201,177.605392 
	C64.688255,176.079941 66.359917,174.218124 67.169182,172.437836 
	C69.166336,172.261902 69.378685,174.054871 70.278900,175.421265 
z"/>
</svg>