<svg version="1.1" id="Layer_1" xmlns="http://www.w3.org/2000/svg" xmlns:xlink="http://www.w3.org/1999/xlink" x="0px" y="0px"
	 width="100%" viewBox="0 0 400 250" enable-background="new 0 0 400 250" xml:space="preserve">
<path fill="#000000" opacity="1.000000" stroke="none" 
	d="
M253.000000,251.000000 
	C168.666702,251.000000 84.833397,251.000000 1.000067,251.000000 
	C1.000045,167.666733 1.000045,84.333450 1.000023,1.000134 
	C134.333221,1.000090 267.666443,1.000090 400.999756,1.000045 
	C400.999817,84.333199 400.999817,167.666397 400.999908,250.999786 
	C351.833344,251.000000 302.666656,251.000000 253.000000,251.000000 
M65.162445,122.486359 
	C65.359985,122.780762 65.634254,122.952980 65.998360,123.002731 
	C65.998360,123.002731 65.993034,123.015915 66.042976,123.688278 
	C67.024948,124.462341 68.006912,125.236412 69.000000,126.000000 
	C69.000000,126.000000 68.988686,126.011665 68.991081,126.484589 
	C68.991081,126.484589 69.024277,126.956352 68.999916,127.692314 
	C68.644958,129.106934 68.290009,130.521561 67.279716,132.067459 
	C66.519119,133.041107 65.758522,134.014771 64.403061,135.318573 
	C64.585030,137.517242 64.766991,139.715927 64.665939,142.463440 
	C63.821194,142.998932 62.976452,143.534424 61.553928,143.972153 
	C61.154167,142.835587 60.754406,141.699020 60.354645,140.562469 
	C59.923244,140.463287 59.491840,140.364105 59.060440,140.264923 
	C58.331196,142.107956 57.601955,143.950989 56.117973,145.898956 
	C54.950665,144.459518 53.513828,143.159409 52.680607,141.547287 
	C51.495781,139.254898 50.754597,136.733215 49.823872,134.309494 
	C49.359451,134.509689 48.895027,134.709885 48.430607,134.910080 
	C48.941185,136.762817 49.764172,138.597458 49.872921,140.473495 
	C49.977932,142.285019 49.346462,144.139252 48.578369,145.784302 
	C48.578369,145.784302 48.161774,145.511459 47.997501,144.930634 
	C47.111797,144.610291 46.226093,144.289948 45.340393,143.969589 
	C45.797878,145.014099 46.255363,146.058609 46.978817,147.816406 
	C46.279636,149.462265 45.580456,151.108109 44.277939,152.803085 
	C43.791920,153.137863 43.305901,153.472641 42.138992,153.920853 
	C40.329300,155.149429 38.519608,156.377991 36.709915,157.606552 
	C37.312889,157.798660 37.915859,157.990768 38.518833,158.182861 
	C38.639328,159.437607 38.759827,160.692337 38.458927,162.116058 
	C38.192905,162.288986 38.016533,162.528046 37.269382,163.007965 
	C36.350288,164.003830 35.431198,164.999680 33.921646,166.062820 
	C33.346706,168.222015 32.771767,170.381210 32.196827,172.540405 
	C32.879539,173.021790 33.562252,173.503189 34.244965,173.984573 
	C34.487232,173.100906 34.729504,172.217224 35.834785,171.163177 
	C37.256813,170.820938 38.678841,170.478683 40.212311,171.226730 
	C40.295040,171.582550 40.377769,171.938385 39.994186,172.720276 
	C38.947632,174.057114 37.901073,175.393967 36.473515,177.217484 
	C42.654404,175.107788 48.089195,173.252747 54.009537,171.967957 
	C54.193470,172.136749 54.377407,172.305557 54.479504,173.138550 
	C53.647083,174.424438 52.814663,175.710312 52.044289,177.107697 
	C52.044289,177.107697 51.829685,177.078873 51.829685,177.078873 
	C51.829685,177.078873 51.994095,176.980179 52.658978,176.784088 
	C56.054874,179.709976 58.858513,177.904541 60.550190,175.043823 
	C62.348434,172.002914 63.182198,168.391663 65.283684,165.045074 
	C67.334114,166.033127 69.384544,167.021194 71.475433,168.028748 
	C71.855453,167.276474 72.429672,166.139755 73.728050,165.090698 
	C75.144745,165.398758 76.561447,165.706802 78.454063,166.360245 
	C78.637527,166.905746 78.820999,167.451263 79.017067,168.734802 
	C80.268150,169.833786 81.519234,170.932770 82.911316,172.469437 
	C82.911316,172.469437 83.038620,172.911285 83.124458,173.673996 
	C84.778954,175.451721 98.941246,178.164383 100.892433,177.042374 
	C101.311371,176.801468 101.619186,176.367355 102.017754,176.759384 
	C103.043365,177.488190 104.068985,178.216995 106.019920,178.938095 
	C112.411797,178.938095 118.803680,178.938095 125.195557,178.938095 
	C125.187920,178.274200 125.180290,177.610291 125.172653,176.946396 
	C122.117744,176.946396 119.062843,176.946396 115.888527,176.320267 
	C114.918480,176.234070 113.948441,176.147888 112.159683,176.030838 
	C109.700302,175.667175 107.240929,175.303497 104.231880,174.962280 
	C103.862671,174.968933 103.493454,174.975586 102.980019,174.420120 
	C102.658600,173.969696 102.337189,173.519272 101.731140,172.471329 
	C97.562363,166.456116 105.278778,168.234100 106.576859,165.647552 
	C99.218422,164.287964 98.542183,163.544678 99.971329,156.449005 
	C100.068016,155.968964 99.986740,155.453094 100.522865,154.478485 
	C109.960106,150.979309 119.539284,147.811554 128.780243,143.854065 
	C134.144028,141.556992 138.964371,137.991013 143.990707,134.988266 
	C143.990707,134.988266 143.987350,135.027466 144.440094,134.887344 
	C144.717514,134.699783 144.885239,134.441116 145.407486,133.569824 
	C150.977585,132.065903 154.205383,128.045166 156.404892,123.069969 
	C159.017578,117.160187 158.451462,114.512779 153.971924,110.314911 
	C153.011719,109.512711 152.051514,108.710510 150.914795,107.202103 
	C150.239853,106.526711 149.618362,105.334244 148.881485,105.258072 
	C143.205170,104.671272 138.493240,101.376434 131.953735,101.857178 
	C126.525436,102.256226 121.163261,102.764198 115.770515,103.761742 
	C114.253082,104.042427 112.493813,102.688911 110.791916,102.394028 
	C109.192604,102.116943 106.936684,101.537895 105.985458,102.322769 
	C101.946144,105.655731 100.112007,102.983170 98.146187,100.029747 
	C97.260994,98.699829 96.312805,97.411850 95.393196,96.104836 
	C95.016884,96.337379 94.640564,96.569916 94.264244,96.802460 
	C95.696899,99.843956 97.129547,102.885445 99.022964,106.905128 
	C94.840065,110.474899 90.426041,114.241920 85.150795,118.003159 
	C83.429497,118.005905 81.708191,118.008659 79.470924,118.214149 
	C78.981445,118.470947 78.491974,118.727745 77.999672,119.002579 
	C77.999672,119.002579 78.017502,118.997116 78.031044,118.322502 
	C78.025673,117.872345 78.020302,117.422195 77.862854,116.287086 
	C75.242531,115.530579 72.622208,114.774071 69.336472,113.999054 
	C68.892921,113.998451 68.449371,113.997849 68.000549,113.966042 
	C68.000549,113.966042 68.008209,113.935333 67.881233,113.306870 
	C66.911560,113.483833 65.941895,113.660797 64.257034,113.828331 
	C62.673717,114.047928 61.090401,114.267532 59.507084,114.487137 
	C60.665733,116.326706 61.824379,118.166283 62.996632,120.002640 
	C62.996632,120.002640 62.998196,120.015892 63.161243,120.486542 
	C63.356236,120.784653 63.630417,120.956261 63.996326,121.003700 
	C63.996326,121.003700 63.998627,121.016243 64.160835,121.487190 
	C64.355965,121.785286 64.630280,121.956673 64.996292,122.003731 
	C64.996292,122.003731 64.998688,122.016251 65.162445,122.486359 
M321.918854,117.850258 
	C322.072235,118.024071 322.225616,118.197884 322.117340,118.996201 
	C317.486481,122.610992 312.855591,126.225784 308.112640,129.928040 
	C309.130341,131.005676 310.253418,132.194855 312.247955,134.306839 
	C317.531403,129.868469 323.588470,126.237526 327.531219,121.011467 
	C330.742157,116.755440 333.547272,116.582626 337.883331,117.451111 
	C337.883331,121.712959 337.883331,125.684898 337.883331,129.781433 
	C339.893219,129.781433 341.665894,129.781433 343.660828,129.781433 
	C343.660828,119.162651 343.660828,108.738510 343.660828,98.120941 
	C341.726715,98.120941 339.851440,98.120941 337.582520,98.120941 
	C337.582520,102.697762 337.582520,106.959679 337.582520,111.460976 
	C335.289551,111.460976 333.396210,111.460976 331.134521,111.460976 
	C331.134521,107.970322 331.134521,104.698334 331.134521,101.212418 
	C323.859039,101.212418 316.950073,101.212418 309.947571,101.212418 
	C309.947571,102.878120 309.947571,104.393593 309.947571,106.176468 
	C315.117340,106.176468 319.909149,106.176468 324.807129,106.176468 
	C324.807129,108.337418 324.807129,110.220398 324.807129,112.277306 
	C318.922455,112.610245 313.346405,112.925720 307.585907,113.251633 
	C307.864532,115.126381 308.074829,116.541367 308.321503,118.200989 
	C312.926788,117.880615 317.221619,117.581841 321.918854,117.850258 
M300.972534,141.304459 
	C293.725464,141.304459 286.478424,141.304459 279.239929,141.304459 
	C279.239929,137.806778 279.239929,135.057739 279.239929,131.894745 
	C284.897675,131.894745 290.318420,131.894745 296.040527,131.894745 
	C295.936188,129.884903 295.854706,128.315414 295.745697,126.215187 
	C284.846161,126.215187 274.279358,126.215187 263.619019,126.215187 
	C263.619019,123.553925 263.619019,121.446228 263.619019,118.782059 
	C273.841156,118.782059 283.893311,118.782059 294.113403,118.782059 
	C294.113403,112.298195 294.113403,106.373009 294.113403,100.355591 
	C281.614258,100.355591 269.380432,100.355591 256.738861,100.355591 
	C256.828735,102.309013 256.906525,104.000053 256.996155,105.948181 
	C267.561798,105.948181 277.520660,105.948181 287.597076,105.948181 
	C287.597076,108.456123 287.597076,110.670296 287.597076,113.423637 
	C277.268555,113.423637 267.197205,113.423637 257.191956,113.423637 
	C257.191956,119.882721 257.191956,125.790726 257.191956,132.184875 
	C262.387817,132.184875 267.282593,132.184875 271.962463,132.184875 
	C271.962463,135.436386 271.962463,138.183868 271.962463,141.283798 
	C264.371033,141.283798 257.105225,141.283798 249.662140,141.283798 
	C249.662140,143.338333 249.662140,145.012039 249.662140,146.589722 
	C267.307831,146.589722 284.541382,146.589722 302.044891,146.589722 
	C301.920624,144.769791 301.819855,143.294067 300.972534,141.304459 
M229.435043,155.927200 
	C232.391769,155.927200 235.348495,155.927200 238.421753,155.927200 
	C238.421753,153.894745 238.421753,152.365402 238.421753,150.474625 
	C228.775558,150.474625 219.476181,150.404999 210.178940,150.514313 
	C207.134720,150.550125 205.750778,149.700806 207.057312,146.086899 
	C216.852448,146.086899 226.761810,146.086899 236.709717,146.086899 
	C236.709717,140.945160 236.709717,136.249420 236.709717,131.091766 
	C231.629227,131.091766 226.888779,131.091766 221.881943,131.091766 
	C222.043610,129.364700 222.159058,128.131454 222.303375,126.589676 
	C229.884735,126.589676 237.164734,126.589676 244.574905,126.589676 
	C244.574905,124.707130 244.574905,123.168091 244.574905,121.561737 
	C227.002655,121.561737 209.764236,121.561737 192.375610,121.561737 
	C192.375610,123.299011 192.375610,124.739967 192.375610,126.701050 
	C199.975616,126.701050 207.381744,126.701050 214.916962,126.701050 
	C214.916962,128.453705 214.916962,129.675278 214.916962,131.297134 
	C209.897324,131.297134 205.129776,131.297134 200.161743,131.297134 
	C200.161743,133.267456 200.161743,134.836334 200.161743,136.897186 
	C210.485687,136.897186 220.572662,136.897186 230.607697,136.897186 
	C230.607697,138.488388 230.607697,139.586380 230.607697,141.110229 
	C220.476013,141.110229 210.552170,141.110229 200.161499,141.110229 
	C200.161499,144.316254 200.262100,147.106339 200.138657,149.886475 
	C199.937866,154.408768 202.039688,156.107254 206.485931,155.982666 
	C213.803757,155.777588 221.131531,155.927155 229.435043,155.927200 
M220.498322,116.927193 
	C225.925415,116.927193 231.352493,116.927193 236.751770,116.927193 
	C236.751770,110.302292 236.751770,104.251389 236.751770,98.259926 
	C224.382690,98.259926 212.325058,98.259926 200.300323,98.259926 
	C200.300323,104.580460 200.300323,110.632286 200.300323,116.927193 
	C206.906433,116.927193 213.202744,116.927193 220.498322,116.927193 
M325.722382,153.129395 
	C328.563232,151.425873 331.601654,149.974121 334.187164,147.945236 
	C336.584137,146.064331 338.470764,146.248413 340.886261,147.733231 
	C345.515656,150.578873 350.293823,153.182388 355.213531,156.002899 
	C356.474762,154.194901 357.546997,152.657791 359.008301,150.562958 
	C352.075470,147.340347 345.826965,144.435837 339.918945,141.689590 
	C340.282288,139.297501 340.755463,136.182327 341.243805,132.967407 
	C338.474609,132.967407 336.527222,132.967407 334.418427,132.967407 
	C334.516937,145.354675 323.550781,146.653839 316.033508,151.481201 
	C317.273315,153.132675 318.351349,154.568695 319.481293,156.073868 
	C321.485931,155.143387 323.277069,154.312027 325.722382,153.129395 
M355.367401,134.846207 
	C355.624725,130.952820 356.054199,127.061646 356.104279,123.165596 
	C356.216309,114.454330 356.139343,105.740631 356.139343,96.865311 
	C353.678833,96.999428 351.935242,97.094467 350.267883,97.185349 
	C350.267883,109.935951 350.267883,122.299110 350.267883,134.919678 
	C351.835541,134.919678 353.132843,134.919678 355.367401,134.846207 
z"/>
<path fill="#060909" opacity="1.000000" stroke="none" 
	d="
M101.978188,176.022247 
	C101.619186,176.367355 101.311371,176.801468 100.892433,177.042374 
	C98.941246,178.164383 84.778954,175.451721 83.435432,173.304611 
	C85.528473,171.987503 87.310539,171.039780 89.366043,170.030182 
	C89.957893,169.647583 90.276306,169.326859 90.594727,169.006149 
	C90.397995,168.828934 90.201263,168.651703 90.004532,168.474487 
	C89.624481,168.938980 89.244431,169.403488 88.497437,169.865448 
	C86.427864,169.190247 84.725243,168.517593 82.965469,167.515656 
	C81.731033,165.791153 80.553757,164.395966 78.779602,162.293411 
	C78.356667,164.257233 78.167404,165.136032 77.978142,166.014847 
	C76.561447,165.706802 75.144745,165.398758 73.365776,164.712677 
	C73.001740,163.889175 72.999985,163.443665 73.326706,163.001450 
	C74.092987,163.016861 74.530785,163.028976 75.032669,163.159332 
	C75.179939,163.317017 75.263115,163.356476 75.346291,163.395935 
	C75.246498,163.251862 75.146706,163.107773 74.996254,162.675018 
	C74.616432,162.087082 74.287270,161.787827 73.958107,161.488571 
	C73.639275,161.992981 73.320442,162.497406 72.696747,162.862579 
	C70.413300,162.270462 68.434723,161.817596 65.665215,161.183731 
	C65.573189,160.747116 65.284073,159.375488 64.997482,158.001923 
	C65.000000,158.000000 65.003990,157.994507 65.358688,157.985306 
	C66.480858,157.054825 67.248322,156.133530 68.389755,155.132507 
	C71.692955,153.271088 74.622177,151.489426 77.878815,150.046936 
	C78.839493,151.527313 79.472763,152.668533 80.071289,154.107010 
	C80.025002,154.603455 80.013451,154.802643 79.668221,155.009155 
	C78.735420,155.392441 78.136314,155.768417 77.537201,156.144379 
	C77.758400,156.345367 78.148872,156.742050 78.175980,156.718628 
	C78.807205,156.172668 79.399078,155.581223 80.235077,155.194550 
	C80.835388,157.008194 81.198830,158.625473 81.691353,160.817139 
	C82.163078,160.542191 84.213860,159.683990 84.130882,159.339005 
	C83.683701,157.479767 82.706879,155.747910 81.934044,153.584167 
	C81.535789,151.471848 81.116264,149.747482 81.125946,147.973846 
	C81.838966,147.875504 82.122772,147.826431 82.769440,147.823669 
	C86.339386,146.244736 89.546463,144.619446 93.126358,142.948883 
	C93.744843,142.855347 93.990509,142.807098 94.597092,142.820801 
	C99.370827,141.179764 103.836342,139.598679 108.174858,137.723724 
	C110.431808,136.748337 112.464600,135.254272 115.010818,133.933197 
	C115.695358,133.817154 115.967720,133.762405 116.591667,133.756927 
	C117.778145,133.253128 118.613037,132.700027 119.813744,132.267502 
	C121.462723,132.089935 122.745880,131.791809 124.433609,131.426392 
	C131.989960,129.150909 139.255569,127.240082 146.230713,124.570389 
	C148.613968,123.658211 150.268188,120.841339 152.612305,118.898376 
	C153.535568,117.412346 154.332809,115.961067 154.589340,114.419800 
	C154.767685,113.348282 154.202927,112.153076 154.019165,111.005188 
	C154.068176,110.997246 154.160965,110.961845 154.160965,110.961845 
	C158.451462,114.512779 159.017578,117.160187 156.404892,123.069969 
	C154.205383,128.045166 150.977585,132.065903 144.941132,133.906372 
	C144.134644,134.393997 143.972183,134.655518 143.987350,135.027466 
	C143.987350,135.027466 143.990707,134.988266 143.631195,134.937683 
	C136.821564,137.829666 130.460617,140.996002 123.882698,143.617981 
	C120.714394,144.880875 117.137115,145.117767 113.655853,145.837692 
	C111.718452,147.065460 109.662018,148.593704 107.408165,149.730530 
	C105.356895,150.765167 103.010880,151.218124 100.968391,152.265900 
	C100.345871,152.585281 100.298828,154.026474 99.988235,154.953888 
	C99.986740,155.453094 100.068016,155.968964 99.971329,156.449005 
	C98.542183,163.544678 99.218422,164.287964 106.576859,165.647552 
	C105.278778,168.234100 97.562363,166.456116 101.879654,173.124435 
	C102.042755,174.486069 102.057335,175.194580 102.048775,175.933121 
	C102.025627,175.963135 101.978188,176.022247 101.978188,176.022247 
M87.211533,155.454773 
	C87.082489,156.536453 86.953438,157.618149 86.743637,159.376724 
	C90.697708,157.898682 94.081963,156.633636 97.466217,155.368591 
	C97.357307,155.004272 97.248405,154.639969 97.139503,154.275650 
	C93.910385,154.437805 90.681274,154.599976 87.211533,155.454773 
M95.148918,162.622940 
	C94.892693,163.232681 94.636459,163.842422 94.380226,164.452164 
	C94.801834,164.547592 95.223442,164.643005 95.645050,164.738419 
	C95.645050,163.926804 95.645050,163.115189 95.148918,162.622940 
M77.733673,160.843948 
	C77.607231,160.961685 77.480789,161.079422 77.354347,161.197159 
	C77.481804,161.177261 77.609253,161.157379 77.733673,160.843948 
z"/>
<path fill="#D8D8D8" opacity="1.000000" stroke="none" 
	d="
M301.345825,141.561401 
	C301.819855,143.294067 301.920624,144.769791 302.044891,146.589722 
	C284.541382,146.589722 267.307831,146.589722 249.662140,146.589722 
	C249.662140,145.012039 249.662140,143.338333 249.662140,141.283798 
	C257.105225,141.283798 264.371033,141.283798 271.962463,141.283798 
	C271.962463,138.183868 271.962463,135.436386 271.962463,132.184875 
	C267.282593,132.184875 262.387817,132.184875 257.191956,132.184875 
	C257.191956,125.790726 257.191956,119.882721 257.191956,113.423637 
	C267.197205,113.423637 277.268555,113.423637 287.597076,113.423637 
	C287.597076,110.670296 287.597076,108.456123 287.597076,105.948181 
	C277.520660,105.948181 267.561798,105.948181 256.996155,105.948181 
	C256.906525,104.000053 256.828735,102.309013 256.738861,100.355591 
	C269.380432,100.355591 281.614258,100.355591 294.113403,100.355591 
	C294.113403,106.373009 294.113403,112.298195 294.113403,118.782059 
	C283.893311,118.782059 273.841156,118.782059 263.619019,118.782059 
	C263.619019,121.446228 263.619019,123.553925 263.619019,126.215187 
	C274.279358,126.215187 284.846161,126.215187 295.745697,126.215187 
	C295.854706,128.315414 295.936188,129.884903 296.040527,131.894745 
	C290.318420,131.894745 284.897675,131.894745 279.239929,131.894745 
	C279.239929,135.057739 279.239929,137.806778 279.239929,141.304459 
	C286.478424,141.304459 293.725464,141.304459 301.345825,141.561401 
z"/>
<path fill="#D9D9D9" opacity="1.000000" stroke="none" 
	d="
M228.945068,155.927200 
	C221.131531,155.927155 213.803757,155.777588 206.485931,155.982666 
	C202.039688,156.107254 199.937866,154.408768 200.138657,149.886475 
	C200.262100,147.106339 200.161499,144.316254 200.161499,141.110229 
	C210.552170,141.110229 220.476013,141.110229 230.607697,141.110229 
	C230.607697,139.586380 230.607697,138.488388 230.607697,136.897186 
	C220.572662,136.897186 210.485687,136.897186 200.161743,136.897186 
	C200.161743,134.836334 200.161743,133.267456 200.161743,131.297134 
	C205.129776,131.297134 209.897324,131.297134 214.916962,131.297134 
	C214.916962,129.675278 214.916962,128.453705 214.916962,126.701050 
	C207.381744,126.701050 199.975616,126.701050 192.375610,126.701050 
	C192.375610,124.739967 192.375610,123.299011 192.375610,121.561737 
	C209.764236,121.561737 227.002655,121.561737 244.574905,121.561737 
	C244.574905,123.168091 244.574905,124.707130 244.574905,126.589676 
	C237.164734,126.589676 229.884735,126.589676 222.303375,126.589676 
	C222.159058,128.131454 222.043610,129.364700 221.881943,131.091766 
	C226.888779,131.091766 231.629227,131.091766 236.709717,131.091766 
	C236.709717,136.249420 236.709717,140.945160 236.709717,146.086899 
	C226.761810,146.086899 216.852448,146.086899 207.057312,146.086899 
	C205.750778,149.700806 207.134720,150.550125 210.178940,150.514313 
	C219.476181,150.404999 228.775558,150.474625 238.421753,150.474625 
	C238.421753,152.365402 238.421753,153.894745 238.421753,155.927200 
	C235.348495,155.927200 232.391769,155.927200 228.945068,155.927200 
z"/>
<path fill="#E6E6E6" opacity="1.000000" stroke="none" 
	d="
M321.516449,117.283066 
	C317.221619,117.581841 312.926788,117.880615 308.321503,118.200989 
	C308.074829,116.541367 307.864532,115.126381 307.585907,113.251633 
	C313.346405,112.925720 318.922455,112.610245 324.807129,112.277306 
	C324.807129,110.220398 324.807129,108.337418 324.807129,106.176468 
	C319.909149,106.176468 315.117340,106.176468 309.947571,106.176468 
	C309.947571,104.393593 309.947571,102.878120 309.947571,101.212418 
	C316.950073,101.212418 323.859039,101.212418 331.134521,101.212418 
	C331.134521,104.698334 331.134521,107.970322 331.134521,111.460976 
	C333.396210,111.460976 335.289551,111.460976 337.582520,111.460976 
	C337.582520,106.959679 337.582520,102.697762 337.582520,98.120941 
	C339.851440,98.120941 341.726715,98.120941 343.660828,98.120941 
	C343.660828,108.738510 343.660828,119.162651 343.660828,129.781433 
	C341.665894,129.781433 339.893219,129.781433 337.883331,129.781433 
	C337.883331,125.684898 337.883331,121.712959 337.883331,117.451111 
	C333.547272,116.582626 330.742157,116.755440 327.531219,121.011467 
	C323.588470,126.237526 317.531403,129.868469 312.247955,134.306839 
	C310.253418,132.194855 309.130341,131.005676 308.112640,129.928040 
	C312.855591,126.225784 317.486481,122.610992 322.480652,118.513916 
	C322.401489,117.782104 321.958954,117.532585 321.516449,117.283066 
z"/>
<path fill="#EBEBEB" opacity="1.000000" stroke="none" 
	d="
M219.998688,116.927193 
	C213.202744,116.927193 206.906433,116.927193 200.300323,116.927193 
	C200.300323,110.632286 200.300323,104.580460 200.300323,98.259926 
	C212.325058,98.259926 224.382690,98.259926 236.751770,98.259926 
	C236.751770,104.251389 236.751770,110.302292 236.751770,116.927193 
	C231.352493,116.927193 225.925415,116.927193 219.998688,116.927193 
M228.188889,102.989975 
	C220.974350,102.989975 213.759811,102.989975 206.631897,102.989975 
	C206.631897,106.385826 206.631897,109.100922 206.631897,111.666946 
	C214.846359,111.666946 222.712845,111.666946 231.618225,111.666946 
	C230.678543,108.400543 229.902023,105.701302 228.188889,102.989975 
z"/>
<path fill="#E2E2E2" opacity="1.000000" stroke="none" 
	d="
M325.395264,153.305023 
	C323.277069,154.312027 321.485931,155.143387 319.481293,156.073868 
	C318.351349,154.568695 317.273315,153.132675 316.033508,151.481201 
	C323.550781,146.653839 334.516937,145.354675 334.418427,132.967407 
	C336.527222,132.967407 338.474609,132.967407 341.243805,132.967407 
	C340.755463,136.182327 340.282288,139.297501 339.918945,141.689590 
	C345.826965,144.435837 352.075470,147.340347 359.008301,150.562958 
	C357.546997,152.657791 356.474762,154.194901 355.213531,156.002899 
	C350.293823,153.182388 345.515656,150.578873 340.886261,147.733231 
	C338.470764,146.248413 336.584137,146.064331 334.187164,147.945236 
	C331.601654,149.974121 328.563232,151.425873 325.395264,153.305023 
z"/>
<path fill="#161616" opacity="1.000000" stroke="none" 
	d="
M86.012024,118.008942 
	C90.426041,114.241920 94.840065,110.474899 99.022964,106.905128 
	C97.129547,102.885445 95.696899,99.843956 94.264244,96.802460 
	C94.640564,96.569916 95.016884,96.337379 95.393196,96.104836 
	C96.312805,97.411850 97.260994,98.699829 98.146187,100.029747 
	C100.112007,102.983170 101.946144,105.655731 105.985458,102.322769 
	C106.936684,101.537895 109.192604,102.116943 110.791916,102.394028 
	C112.493813,102.688911 114.253082,104.042427 115.770515,103.761742 
	C121.163261,102.764198 126.525436,102.256226 131.953735,101.857178 
	C138.493240,101.376434 143.205170,104.671272 148.881485,105.258072 
	C149.618362,105.334244 150.239853,106.526711 150.957535,107.600998 
	C151.000275,107.999886 150.909317,108.091530 150.524048,108.046082 
	C149.110382,108.091682 148.082016,108.182724 146.755341,108.035408 
	C132.080948,101.863190 118.416817,104.705132 104.810555,111.199036 
	C104.263901,111.363831 104.034782,111.575562 103.584648,111.883957 
	C102.880280,111.946381 102.479507,112.001518 101.793533,112.131310 
	C101.006561,112.780853 100.504776,113.355736 99.632507,113.914749 
	C94.818214,116.164558 90.374390,118.430237 85.942505,120.359970 
	C85.973640,119.352333 85.992836,118.680641 86.012024,118.008942 
z"/>
<path fill="#BD2A02" opacity="1.000000" stroke="none" 
	d="
M40.100868,170.136444 
	C38.678841,170.478683 37.256813,170.820938 35.482132,170.953247 
	C35.122551,170.348419 35.115627,169.953552 35.385361,169.467346 
	C35.834389,169.286514 36.006760,169.197006 36.491951,168.982666 
	C37.436508,168.136292 38.068249,167.414780 39.105595,166.230042 
	C37.041645,166.124664 35.776871,166.060104 34.512100,165.995529 
	C35.431198,164.999680 36.350288,164.003830 37.664391,163.218536 
	C43.743961,163.168777 45.021343,167.613800 46.430504,173.108383 
	C47.705059,170.520615 48.309566,169.293259 49.299961,168.075653 
	C55.405041,166.513626 60.259827,164.011810 61.488365,157.534973 
	C62.634945,160.160339 63.536034,162.594894 64.437119,165.029449 
	C63.182198,168.391663 62.348434,172.002914 60.550190,175.043823 
	C58.858513,177.904541 56.054874,179.709976 52.327988,176.885193 
	C51.996994,176.986298 51.982243,176.996201 51.982239,176.996201 
	C52.814663,175.710312 53.647083,174.424438 54.719574,172.573669 
	C54.481091,171.805099 54.002541,171.601395 53.523987,171.397705 
	C48.089195,173.252747 42.654404,175.107788 36.473515,177.217484 
	C37.901073,175.393967 38.947632,174.057114 40.497559,172.407990 
	C41.591568,171.337234 42.182205,170.578751 42.772842,169.820282 
	C42.571518,169.603226 42.370197,169.386154 42.168873,169.169098 
	C41.479538,169.491547 40.790203,169.813995 40.100868,170.136444 
z"/>
<path fill="#EBEBEB" opacity="1.000000" stroke="none" 
	d="
M354.898773,134.882935 
	C353.132843,134.919678 351.835541,134.919678 350.267883,134.919678 
	C350.267883,122.299110 350.267883,109.935951 350.267883,97.185349 
	C351.935242,97.094467 353.678833,96.999428 356.139343,96.865311 
	C356.139343,105.740631 356.216309,114.454330 356.104279,123.165596 
	C356.054199,127.061646 355.624725,130.952820 354.898773,134.882935 
z"/>
<path fill="#060909" opacity="1.000000" stroke="none" 
	d="
M70.001884,114.017555 
	C72.622208,114.774071 75.242531,115.530579 77.619492,116.606392 
	C76.374519,117.014671 75.372894,117.103653 74.371277,117.192627 
	C74.380409,117.632683 74.389542,118.072731 74.398674,118.512787 
	C75.604950,118.674232 76.811226,118.835670 78.017502,118.997116 
	C78.017502,118.997116 77.999672,119.002579 78.001038,119.333694 
	C77.994255,120.117798 77.986115,120.570786 77.687912,121.259018 
	C77.249687,122.989998 77.101524,124.485733 76.608421,126.034248 
	C75.198906,126.978996 74.134346,127.870949 72.379883,129.340958 
	C74.533348,129.779678 75.564896,129.989838 76.432755,130.507050 
	C75.550034,132.205017 74.831009,133.595932 73.747932,134.991592 
	C72.899094,135.009857 72.414299,135.023376 71.774612,134.759949 
	C71.130913,132.641220 70.507935,130.996201 68.018967,132.018768 
	C67.991058,131.991165 67.935051,131.936188 67.935059,131.936188 
	C68.290009,130.521561 68.644958,129.106934 69.253395,127.311539 
	C69.755226,126.770935 70.003578,126.611107 70.251938,126.451279 
	C69.830856,126.304741 69.409767,126.158203 68.988686,126.011665 
	C68.988686,126.011665 69.000000,126.000000 68.971207,125.666542 
	C67.959297,124.560692 66.976166,123.788300 65.993034,123.015915 
	C65.993034,123.015915 65.998360,123.002731 65.894646,122.779106 
	C65.595314,122.275162 65.331238,122.095421 64.998688,122.016251 
	C64.998688,122.016251 64.996292,122.003731 64.893311,121.778915 
	C64.594818,121.274170 64.330917,121.094887 63.998627,121.016243 
	C63.998627,121.016243 63.996326,121.003700 63.893200,120.778885 
	C63.594429,120.274170 63.330467,120.094780 62.998196,120.015892 
	C62.998196,120.015892 62.996632,120.002640 62.955650,119.640518 
	C61.425411,113.152092 66.410812,117.235802 68.388306,116.033264 
	C69.961731,116.521271 71.187370,117.003868 72.413017,117.486473 
	C72.619125,117.207092 72.825241,116.927711 73.031357,116.648331 
	C72.021530,115.771400 71.011711,114.894478 70.001884,114.017555 
z"/>
<path fill="#0F1210" opacity="1.000000" stroke="none" 
	d="
M64.860397,165.037262 
	C63.536034,162.594894 62.634945,160.160339 61.350857,157.174652 
	C60.184715,155.367416 59.401577,154.111313 58.718262,152.962036 
	C58.818081,153.068832 59.062908,152.908997 59.383770,152.859100 
	C61.754944,149.262070 57.617210,148.212952 56.872711,145.794022 
	C57.601955,143.950989 58.331196,142.107956 59.060440,140.264923 
	C59.491840,140.364105 59.923244,140.463287 60.354645,140.562469 
	C60.754406,141.699020 61.154167,142.835587 61.800011,144.380920 
	C62.669254,146.208557 63.292416,147.627426 63.981529,149.394806 
	C65.370247,151.566299 66.693016,153.389267 68.015785,155.212250 
	C67.248322,156.133530 66.480858,157.054825 65.307709,157.863892 
	C64.827522,157.707169 64.753021,157.662628 64.678520,157.618103 
	C64.784004,157.746689 64.889481,157.875275 64.994957,158.003860 
	C65.284073,159.375488 65.573189,160.747116 65.665215,161.183731 
	C68.434723,161.817596 70.413300,162.270462 72.695938,162.861664 
	C73.000000,163.000000 72.998222,162.998169 72.998222,162.998169 
	C72.999985,163.443665 73.001740,163.889175 73.003693,164.668854 
	C72.429672,166.139755 71.855453,167.276474 71.475433,168.028748 
	C69.384544,167.021194 67.334114,166.033127 64.860397,165.037262 
z"/>
<path fill="#3F4441" opacity="1.000000" stroke="none" 
	d="
M100.255554,154.716187 
	C100.298828,154.026474 100.345871,152.585281 100.968391,152.265900 
	C103.010880,151.218124 105.356895,150.765167 107.408165,149.730530 
	C109.662018,148.593704 111.718452,147.065460 113.655853,145.837692 
	C117.137115,145.117767 120.714394,144.880875 123.882698,143.617981 
	C130.460617,140.996002 136.821564,137.829666 143.650482,134.941574 
	C138.964371,137.991013 134.144028,141.556992 128.780243,143.854065 
	C119.539284,147.811554 109.960106,150.979309 100.255554,154.716187 
z"/>
<path fill="#E14202" opacity="1.000000" stroke="none" 
	d="
M48.914078,168.065903 
	C48.309566,169.293259 47.705059,170.520615 46.430504,173.108383 
	C45.021343,167.613800 43.743961,163.168777 37.994606,163.131165 
	C38.016533,162.528046 38.192905,162.288986 39.063354,162.046967 
	C42.436714,161.165131 46.231747,161.667252 46.396088,156.975708 
	C47.934444,157.722595 49.089802,158.519867 50.245155,159.317139 
	C50.019703,159.763596 49.794247,160.210037 49.568794,160.656479 
	C50.876793,160.905136 52.184788,161.153793 53.498260,161.403488 
	C51.804501,163.865112 50.359287,165.965515 48.914078,168.065903 
z"/>
<path fill="#50130E" opacity="1.000000" stroke="none" 
	d="
M56.495342,145.846497 
	C57.617210,148.212952 61.754944,149.262070 59.146599,152.620789 
	C55.405220,150.279816 52.221867,148.127274 49.038521,145.974716 
	C49.346462,144.139252 49.977932,142.285019 49.872921,140.473495 
	C49.764172,138.597458 48.941185,136.762817 48.430607,134.910080 
	C48.895027,134.709885 49.359451,134.509689 49.823872,134.309494 
	C50.754597,136.733215 51.495781,139.254898 52.680607,141.547287 
	C53.513828,143.159409 54.950665,144.459518 56.495342,145.846497 
z"/>
<path fill="#1B9D3C" opacity="1.000000" stroke="none" 
	d="
M63.915581,149.046295 
	C63.292416,147.627426 62.669254,146.208557 62.088898,144.429810 
	C62.976452,143.534424 63.821194,142.998932 65.114441,142.075897 
	C66.703598,140.851044 67.844254,140.013748 69.511078,138.790222 
	C70.582771,141.159927 71.433083,143.040131 71.932434,145.055649 
	C69.026184,146.476074 66.470879,147.761185 63.915581,149.046295 
z"/>
<path fill="#183F21" opacity="1.000000" stroke="none" 
	d="
M116.007935,176.946396 
	C119.062843,176.946396 122.117744,176.946396 125.172653,176.946396 
	C125.180290,177.610291 125.187920,178.274200 125.195557,178.938095 
	C118.803680,178.938095 112.411797,178.938095 105.530022,178.543335 
	C104.953934,177.079010 104.867737,176.009415 104.781548,174.939835 
	C107.240929,175.303497 109.700302,175.667175 112.801628,176.277222 
	C114.298363,176.664536 115.153145,176.805466 116.007935,176.946396 
z"/>
<path fill="#0F1210" opacity="1.000000" stroke="none" 
	d="
M72.283394,144.920334 
	C71.433083,143.040131 70.582771,141.159927 69.511078,138.790222 
	C67.844254,140.013748 66.703598,140.851044 65.255943,141.801468 
	C64.766991,139.715927 64.585030,137.517242 64.893280,135.382233 
	C66.329132,135.283997 67.274757,135.122086 68.504417,135.113113 
	C71.193596,137.850998 73.598740,140.435974 76.005432,143.007584 
	C76.006981,142.994232 75.980133,142.993362 75.923866,143.355469 
	C75.837189,143.959976 75.806778,144.202377 75.741043,144.432007 
	C75.705719,144.419250 75.782867,144.468307 76.012054,145.082581 
	C76.376999,146.112320 76.512764,146.527786 76.241356,146.886978 
	C74.650589,146.193909 73.466995,145.557114 72.283394,144.920334 
z"/>
<path fill="#E14202" opacity="1.000000" stroke="none" 
	d="
M48.808441,145.879517 
	C52.221867,148.127274 55.405220,150.279816 58.825737,152.670685 
	C59.062908,152.908997 58.818081,153.068832 58.379616,152.987045 
	C53.262733,149.336441 49.218605,152.734085 44.974667,153.750885 
	C44.934589,153.196106 44.907932,152.975037 44.881279,152.753967 
	C45.580456,151.108109 46.279636,149.462265 47.081184,147.189087 
	C47.509628,146.211670 47.835701,145.861572 48.161774,145.511459 
	C48.161774,145.511459 48.578369,145.784302 48.808441,145.879517 
z"/>
<path fill="#BD2A02" opacity="1.000000" stroke="none" 
	d="
M46.013092,157.026123 
	C46.231747,161.667252 42.436714,161.165131 39.274052,161.962479 
	C38.759827,160.692337 38.639328,159.437607 38.518833,158.182861 
	C37.915859,157.990768 37.312889,157.798660 36.709915,157.606552 
	C38.519608,156.377991 40.329300,155.149429 42.681770,154.074188 
	C43.359474,154.366760 43.494392,154.505981 43.557571,154.741180 
	C43.485832,154.837158 43.266594,154.933868 43.017624,155.049561 
	C43.234505,155.748062 43.700356,156.330872 44.475109,156.905853 
	C45.193707,156.940720 45.603401,156.983414 46.013092,157.026123 
z"/>
<path fill="#183F21" opacity="1.000000" stroke="none" 
	d="
M68.040527,116.027855 
	C66.410812,117.235802 61.425411,113.152092 62.948849,119.642128 
	C61.824379,118.166283 60.665733,116.326706 59.507084,114.487137 
	C61.090401,114.267532 62.673717,114.047928 64.992493,113.879547 
	C66.488037,113.932289 67.248123,113.933815 68.008209,113.935333 
	C68.008209,113.935333 68.000549,113.966042 68.005974,114.319962 
	C68.021111,115.125206 68.030823,115.576530 68.040527,116.027855 
z"/>
<path fill="#50130E" opacity="1.000000" stroke="none" 
	d="
M35.108704,169.558670 
	C35.115627,169.953552 35.122551,170.348419 35.050625,171.038422 
	C34.729504,172.217224 34.487232,173.100906 34.244965,173.984573 
	C33.562252,173.503189 32.879539,173.021790 32.196827,172.540405 
	C32.771767,170.381210 33.346706,168.222015 34.216873,166.029175 
	C35.776871,166.060104 37.041645,166.124664 39.105595,166.230042 
	C38.068249,167.414780 37.436508,168.136292 36.330101,168.768158 
	C35.496281,168.612091 35.137127,168.545670 34.777969,168.479263 
	C34.888214,168.839066 34.998459,169.198868 35.108704,169.558670 
z"/>
<path fill="#060909" opacity="1.000000" stroke="none" 
	d="
M85.581413,118.006050 
	C85.992836,118.680641 85.973640,119.352333 85.704529,120.441193 
	C85.293068,120.904007 85.131523,120.949646 84.772484,121.084946 
	C84.331856,121.342049 84.140228,121.555695 83.739990,121.932144 
	C83.191681,122.294800 82.903488,122.540855 82.338547,122.804886 
	C81.694794,122.872086 81.327789,122.921310 80.736526,122.971710 
	C80.512268,122.972893 80.063934,122.959656 80.060806,122.703232 
	C80.049171,122.276062 80.040657,122.105316 80.025841,121.542038 
	C80.008652,120.103485 79.997772,119.057442 79.986893,118.011406 
	C81.708191,118.008659 83.429497,118.005905 85.581413,118.006050 
z"/>
<path fill="#3F4441" opacity="1.000000" stroke="none" 
	d="
M83.022614,167.844940 
	C84.725243,168.517593 86.427864,169.190247 88.554672,169.921280 
	C88.978851,169.979660 89.092613,170.092056 89.092613,170.092056 
	C87.310539,171.039780 85.528473,171.987503 83.392517,172.923248 
	C83.038620,172.911285 82.911316,172.469437 82.872528,171.932556 
	C82.176010,170.594864 81.518272,169.794037 81.056465,168.743744 
	C81.842468,168.277817 82.432541,168.061371 83.022614,167.844940 
z"/>
<path fill="#0F1210" opacity="1.000000" stroke="none" 
	d="
M82.965469,167.515656 
	C82.432541,168.061371 81.842468,168.277817 80.822517,168.626007 
	C79.929916,168.504089 79.467194,168.250427 79.004463,167.996765 
	C78.820999,167.451263 78.637527,166.905746 78.216103,166.187546 
	C78.167404,165.136032 78.356667,164.257233 78.779602,162.293411 
	C80.553757,164.395966 81.731033,165.791153 82.965469,167.515656 
z"/>
<path fill="#161616" opacity="1.000000" stroke="none" 
	d="
M68.388306,116.033264 
	C68.030823,115.576530 68.021111,115.125206 68.008606,114.335564 
	C68.449371,113.997849 68.892921,113.998451 69.669174,114.008301 
	C71.011711,114.894478 72.021530,115.771400 73.031357,116.648331 
	C72.825241,116.927711 72.619125,117.207092 72.413017,117.486473 
	C71.187370,117.003868 69.961731,116.521271 68.388306,116.033264 
z"/>
<path fill="#060909" opacity="1.000000" stroke="none" 
	d="
M104.506714,174.951050 
	C104.867737,176.009415 104.953934,177.079010 105.067360,178.547195 
	C104.068985,178.216995 103.043365,177.488190 101.997971,176.390808 
	C101.978188,176.022247 102.025627,175.963135 102.259689,175.828110 
	C102.755310,175.501755 102.965469,175.264801 103.124245,174.982239 
	C103.493454,174.975586 103.862671,174.968933 104.506714,174.951050 
z"/>
<path fill="#060909" opacity="1.000000" stroke="none" 
	d="
M79.010765,168.365784 
	C79.467194,168.250427 79.929916,168.504089 80.626587,168.875488 
	C81.518272,169.794037 82.176010,170.594864 82.802032,171.713715 
	C81.519234,170.932770 80.268150,169.833786 79.010765,168.365784 
z"/>
<path fill="#060909" opacity="1.000000" stroke="none" 
	d="
M68.220375,134.960175 
	C67.274757,135.122086 66.329132,135.283997 65.190712,135.217163 
	C65.758522,134.014771 66.519119,133.041107 67.607384,132.001831 
	C67.935051,131.936188 67.991058,131.991165 67.994652,132.384003 
	C68.072289,133.504623 68.146332,134.232391 68.220375,134.960175 
z"/>
<path fill="#50130E" opacity="1.000000" stroke="none" 
	d="
M48.079636,145.221039 
	C47.835701,145.861572 47.509628,146.211670 46.948204,146.832458 
	C46.255363,146.058609 45.797878,145.014099 45.340393,143.969589 
	C46.226093,144.289948 47.111797,144.610291 48.079636,145.221039 
z"/>
<path fill="#161616" opacity="1.000000" stroke="none" 
	d="
M78.024277,118.659805 
	C76.811226,118.835670 75.604950,118.674232 74.398674,118.512787 
	C74.389542,118.072731 74.380409,117.632683 74.371277,117.192627 
	C75.372894,117.103653 76.374519,117.014671 77.695526,116.948868 
	C78.020302,117.422195 78.025673,117.872345 78.024277,118.659805 
z"/>
<path fill="#161616" opacity="1.000000" stroke="none" 
	d="
M151.045792,107.954102 
	C152.051514,108.710510 153.011719,109.512711 154.066437,110.638382 
	C154.160965,110.961845 154.068176,110.997246 153.658142,110.976189 
	C152.468506,110.000603 151.688919,109.046066 150.909317,108.091530 
	C150.909317,108.091530 151.000275,107.999886 151.045792,107.954102 
z"/>
<path fill="#161616" opacity="1.000000" stroke="none" 
	d="
M79.728912,118.112778 
	C79.997772,119.057442 80.008652,120.103485 79.728424,121.523666 
	C78.950867,121.606468 78.464424,121.315117 77.977974,121.023766 
	C77.986115,120.570786 77.994255,120.117798 78.002441,119.324684 
	C78.491974,118.727745 78.981445,118.470947 79.728912,118.112778 
z"/>
<path fill="#50130E" opacity="1.000000" stroke="none" 
	d="
M40.156590,170.681580 
	C40.790203,169.813995 41.479538,169.491547 42.168873,169.169098 
	C42.370197,169.386154 42.571518,169.603226 42.772842,169.820282 
	C42.182205,170.578751 41.591568,171.337234 40.730713,172.194962 
	C40.377769,171.938385 40.295040,171.582550 40.156590,170.681580 
z"/>
<path fill="#183F21" opacity="1.000000" stroke="none" 
	d="
M66.018005,123.352097 
	C66.976166,123.788300 67.959297,124.560692 68.965652,125.671783 
	C68.006912,125.236412 67.024948,124.462341 66.018005,123.352097 
z"/>
<path fill="#060909" opacity="1.000000" stroke="none" 
	d="
M115.948227,176.633331 
	C115.153145,176.805466 114.298363,176.664536 113.210983,176.292664 
	C113.948441,176.147888 114.918480,176.234070 115.948227,176.633331 
z"/>
<path fill="#060909" opacity="1.000000" stroke="none" 
	d="
M67.944717,113.621101 
	C67.248123,113.933815 66.488037,113.932289 65.350082,113.884262 
	C65.941895,113.660797 66.911560,113.483833 67.944717,113.621101 
z"/>
<path fill="#183F21" opacity="1.000000" stroke="none" 
	d="
M103.052132,174.701172 
	C102.965469,175.264801 102.755310,175.501755 102.282837,175.798096 
	C102.057335,175.194580 102.042755,174.486069 102.021973,173.423187 
	C102.337189,173.519272 102.658600,173.969696 103.052132,174.701172 
z"/>
<path fill="#183F21" opacity="1.000000" stroke="none" 
	d="
M68.989883,126.248123 
	C69.409767,126.158203 69.830856,126.304741 70.251938,126.451279 
	C70.003578,126.611107 69.755226,126.770935 69.265579,126.943558 
	C69.024277,126.956352 68.991081,126.484589 68.989883,126.248123 
z"/>
<path fill="#BD2A02" opacity="1.000000" stroke="none" 
	d="
M44.579605,152.778534 
	C44.907932,152.975037 44.934589,153.196106 44.753532,153.856659 
	C44.246052,154.427567 43.940548,154.543915 43.629311,154.645218 
	C43.494392,154.505981 43.359474,154.366760 43.022217,154.017471 
	C43.305901,153.472641 43.791920,153.137863 44.579605,152.778534 
z"/>
<path fill="#BD2A02" opacity="1.000000" stroke="none" 
	d="
M51.995544,176.983246 
	C51.994095,176.980179 51.829685,177.078873 51.829685,177.078873 
	C51.829685,177.078873 52.044289,177.107697 52.013268,177.051941 
	C51.982243,176.996201 51.996994,176.986298 51.995544,176.983246 
z"/>
<path fill="#183F21" opacity="1.000000" stroke="none" 
	d="
M64.079727,121.251717 
	C64.330917,121.094887 64.594818,121.274170 64.887054,121.777725 
	C64.630280,121.956673 64.355965,121.785286 64.079727,121.251717 
z"/>
<path fill="#183F21" opacity="1.000000" stroke="none" 
	d="
M63.079720,120.251221 
	C63.330467,120.094780 63.594429,120.274170 63.886929,120.777718 
	C63.630417,120.956261 63.356236,120.784653 63.079720,120.251221 
z"/>
<path fill="#183F21" opacity="1.000000" stroke="none" 
	d="
M65.080566,122.251305 
	C65.331238,122.095421 65.595314,122.275162 65.888092,122.779251 
	C65.634254,122.952980 65.359985,122.780762 65.080566,122.251305 
z"/>
<path fill="#3F4441" opacity="1.000000" stroke="none" 
	d="
M144.213715,134.957397 
	C143.972183,134.655518 144.134644,134.393997 144.709030,134.177124 
	C144.885239,134.441116 144.717514,134.699783 144.213715,134.957397 
z"/>
<path fill="#1EA842" opacity="1.000000" stroke="none" 
	d="
M105.045517,111.156624 
	C118.416817,104.705132 132.080948,101.863190 146.807770,108.352951 
	C148.857498,112.237480 150.556503,115.566093 152.255524,118.894714 
	C150.268188,120.841339 148.613968,123.658211 146.230713,124.570389 
	C139.255569,127.240082 131.989960,129.150909 124.424225,131.015823 
	C123.592636,129.855682 122.911377,128.289276 122.795380,128.330078 
	C118.348137,129.894180 117.696747,125.952171 115.851959,123.704124 
	C113.981033,121.424217 111.982094,119.249374 110.031631,117.006165 
	C110.024040,116.983826 109.984879,116.957458 109.958939,116.617012 
	C108.299149,114.851852 106.665298,113.427147 105.022850,111.995056 
	C105.014244,111.987671 105.001167,111.969147 105.014771,111.766151 
	C105.028374,111.563156 105.045517,111.156624 105.045517,111.156624 
M137.614944,111.749313 
	C139.147369,111.749313 140.679794,111.749313 142.212219,111.749313 
	C142.425751,111.281593 142.639297,110.813873 142.852844,110.346153 
	C141.567642,109.563774 140.282455,108.781395 138.084045,107.864021 
	C132.743073,108.596886 127.402107,109.329742 121.624832,110.132370 
	C121.541855,110.253464 121.369659,110.461411 121.389809,110.482101 
	C121.574913,110.672249 121.793358,110.829941 122.896027,111.292519 
	C127.604401,111.315437 132.312775,111.338364 137.614944,111.749313 
z"/>
<path fill="#1DA23F" opacity="1.000000" stroke="none" 
	d="
M82.615280,122.786903 
	C82.903488,122.540855 83.191681,122.294800 83.975357,121.909050 
	C84.758072,121.589279 84.924454,121.331261 84.969978,120.995293 
	C85.131523,120.949646 85.293068,120.904007 85.692581,120.777138 
	C90.374390,118.430237 94.818214,116.164558 99.754204,114.259956 
	C101.199745,116.605782 102.121368,118.606728 103.121971,120.567375 
	C103.527611,121.362213 103.974236,122.565422 104.625534,122.737473 
	C109.706795,124.079803 110.915871,127.692047 110.290428,132.093811 
	C111.956757,132.828949 113.277695,133.411728 114.598640,133.994492 
	C112.464600,135.254272 110.431808,136.748337 108.174858,137.723724 
	C103.836342,139.598679 99.370827,141.179764 94.510696,142.486267 
	C91.550865,138.053253 88.991287,134.044922 86.543938,129.969223 
	C85.140274,127.631630 83.918785,125.184647 82.615280,122.786903 
z"/>
<path fill="#1B9D3C" opacity="1.000000" stroke="none" 
	d="
M74.111984,134.986862 
	C74.831009,133.595932 75.550034,132.205017 76.710716,130.453094 
	C78.108910,129.079086 79.065445,128.066071 80.369995,127.103279 
	C81.695068,129.084427 82.672119,131.015335 83.922585,133.486572 
	C88.538300,134.877487 89.751129,136.774719 89.241447,142.620468 
	C90.418282,142.745682 91.585915,142.869934 92.753548,142.994171 
	C89.546463,144.619446 86.339386,146.244736 82.666885,147.482300 
	C79.504967,143.058670 76.808472,139.022766 74.111984,134.986862 
z"/>
<path fill="#188835" opacity="1.000000" stroke="none" 
	d="
M71.932434,145.055649 
	C73.466995,145.557114 74.650589,146.193909 76.289314,147.033493 
	C77.013428,148.060104 77.282410,148.883942 77.551399,149.707764 
	C74.622177,151.489426 71.692955,153.271088 68.389755,155.132507 
	C66.693016,153.389267 65.370247,151.566299 63.981529,149.394806 
	C66.470879,147.761185 69.026184,146.476074 71.932434,145.055649 
z"/>
<path fill="#183F21" opacity="1.000000" stroke="none" 
	d="
M115.010818,133.933197 
	C113.277695,133.411728 111.956757,132.828949 110.290428,132.093811 
	C110.915871,127.692047 109.706795,124.079803 104.625534,122.737473 
	C103.974236,122.565422 103.527611,121.362213 103.121971,120.567375 
	C102.121368,118.606728 101.199745,116.605782 100.124680,114.275818 
	C100.504776,113.355736 101.006561,112.780853 101.771194,112.477493 
	C106.769386,119.735229 111.504738,126.721436 116.240089,133.707642 
	C115.967720,133.762405 115.695358,133.817154 115.010818,133.933197 
z"/>
<path fill="#1B9D3C" opacity="1.000000" stroke="none" 
	d="
M116.591667,133.756927 
	C111.504738,126.721436 106.769386,119.735229 102.056381,112.402832 
	C102.479507,112.001518 102.880280,111.946381 103.861145,111.930443 
	C104.627876,111.969475 104.814522,111.969307 105.001167,111.969147 
	C105.001167,111.969147 105.014244,111.987671 105.039009,112.339996 
	C106.704140,114.114044 108.344505,115.535751 109.984879,116.957458 
	C109.984879,116.957458 110.024040,116.983826 110.009125,117.370758 
	C113.145454,122.554108 116.296692,127.350525 119.447929,132.146942 
	C118.613037,132.700027 117.778145,133.253128 116.591667,133.756927 
z"/>
<path fill="#183F21" opacity="1.000000" stroke="none" 
	d="
M93.126358,142.948883 
	C91.585915,142.869934 90.418282,142.745682 89.241447,142.620468 
	C89.751129,136.774719 88.538300,134.877487 83.922585,133.486572 
	C82.672119,131.015335 81.695068,129.084427 80.494858,126.771698 
	C80.501396,125.250107 80.731087,124.110321 80.960777,122.970535 
	C81.327789,122.921310 81.694794,122.872086 82.338547,122.804886 
	C83.918785,125.184647 85.140274,127.631630 86.543938,129.969223 
	C88.991287,134.044922 91.550865,138.053253 94.149796,142.424332 
	C93.990509,142.807098 93.744843,142.855347 93.126358,142.948883 
z"/>
<path fill="#188835" opacity="1.000000" stroke="none" 
	d="
M119.813744,132.267517 
	C116.296692,127.350525 113.145454,122.554108 110.016724,117.393097 
	C111.982094,119.249374 113.981033,121.424217 115.851959,123.704124 
	C117.696747,125.952171 118.348137,129.894180 122.795380,128.330078 
	C122.911377,128.289276 123.592636,129.855682 124.019669,131.083130 
	C122.745880,131.791809 121.462723,132.089935 119.813744,132.267517 
z"/>
<path fill="#3F4441" opacity="1.000000" stroke="none" 
	d="
M152.612305,118.898369 
	C150.556503,115.566093 148.857498,112.237480 147.106064,108.591324 
	C148.082016,108.182724 149.110382,108.091682 150.524048,108.046082 
	C151.688919,109.046066 152.468506,110.000603 153.609131,110.984131 
	C154.202927,112.153076 154.767685,113.348282 154.589340,114.419800 
	C154.332809,115.961067 153.535568,117.412346 152.612305,118.898369 
z"/>
<path fill="#161616" opacity="1.000000" stroke="none" 
	d="
M73.747932,134.991592 
	C76.808472,139.022766 79.504967,143.058670 82.304016,147.435959 
	C82.122772,147.826431 81.838966,147.875504 80.868828,147.794617 
	C78.781708,146.107559 77.380920,144.550461 75.980133,142.993362 
	C75.980133,142.993362 76.006981,142.994232 76.030441,142.643570 
	C74.679108,139.874237 73.304314,137.455582 71.929512,135.036896 
	C72.414299,135.023376 72.899094,135.009857 73.747932,134.991592 
z"/>
<path fill="#3F4441" opacity="1.000000" stroke="none" 
	d="
M87.331848,155.108459 
	C90.681274,154.599976 93.910385,154.437805 97.139503,154.275650 
	C97.248405,154.639969 97.357307,155.004272 97.466217,155.368591 
	C94.081963,156.633636 90.697708,157.898682 86.743637,159.376724 
	C86.953438,157.618149 87.082489,156.536453 87.331848,155.108459 
z"/>
<path fill="#3F4441" opacity="1.000000" stroke="none" 
	d="
M75.923866,143.355469 
	C77.380920,144.550461 78.781708,146.107559 80.439621,147.843887 
	C81.116264,149.747482 81.535789,151.471848 81.632507,153.566528 
	C80.908485,153.894485 80.507256,153.852112 80.106033,153.809753 
	C79.472763,152.668533 78.839493,151.527313 77.878815,150.046936 
	C77.282410,148.883942 77.013428,148.060104 76.696487,147.089767 
	C76.512764,146.527786 76.376999,146.112320 76.024094,145.075897 
	C75.806953,144.454956 75.776367,144.444778 75.776367,144.444778 
	C75.806778,144.202377 75.837189,143.959976 75.923866,143.355469 
z"/>
<path fill="#0F1210" opacity="1.000000" stroke="none" 
	d="
M80.071289,154.107010 
	C80.507256,153.852112 80.908485,153.894485 81.611244,153.954483 
	C82.706879,155.747910 83.683701,157.479767 84.130882,159.339005 
	C84.213860,159.683990 82.163078,160.542191 81.691353,160.817139 
	C81.198830,158.625473 80.835388,157.008194 80.235970,155.195465 
	C80.000000,155.000000 80.001907,155.001831 80.001907,155.001831 
	C80.013451,154.802643 80.025002,154.603455 80.071289,154.107010 
z"/>
<path fill="#3F4441" opacity="1.000000" stroke="none" 
	d="
M95.396988,162.463257 
	C95.645050,163.115189 95.645050,163.926804 95.645050,164.738419 
	C95.223442,164.643005 94.801834,164.547592 94.380226,164.452164 
	C94.636459,163.842422 94.892693,163.232681 95.396988,162.463257 
z"/>
<path fill="#0F1210" opacity="1.000000" stroke="none" 
	d="
M79.999115,154.999084 
	C79.399078,155.581223 78.807205,156.172668 78.175980,156.718628 
	C78.148872,156.742050 77.758400,156.345367 77.537201,156.144379 
	C78.136314,155.768417 78.735420,155.392441 79.668221,155.009155 
	C80.001907,155.001831 80.000000,155.000000 79.999115,154.999084 
z"/>
<path fill="#0F1210" opacity="1.000000" stroke="none" 
	d="
M74.968575,163.041107 
	C74.530785,163.028976 74.092987,163.016861 73.326706,163.001450 
	C72.998222,162.998169 73.000000,163.000000 73.000809,163.000916 
	C73.320442,162.497406 73.639275,161.992981 73.958107,161.488571 
	C74.287270,161.787827 74.616432,162.087082 74.975250,162.692932 
	C75.004913,162.999542 74.968575,163.041107 74.968575,163.041107 
z"/>
<path fill="#3F4441" opacity="1.000000" stroke="none" 
	d="
M88.921616,169.923828 
	C89.244431,169.403488 89.624481,168.938980 90.004532,168.474487 
	C90.201263,168.651703 90.397995,168.828934 90.594727,169.006149 
	C90.276306,169.326859 89.957893,169.647583 89.366043,170.030182 
	C89.092613,170.092056 88.978851,169.979660 88.921616,169.923828 
z"/>
<path fill="#0F1210" opacity="1.000000" stroke="none" 
	d="
M77.735191,160.990723 
	C77.609253,161.157379 77.481804,161.177261 77.354347,161.197159 
	C77.480789,161.079422 77.607231,160.961685 77.735191,160.990723 
z"/>
<path fill="#0F1210" opacity="1.000000" stroke="none" 
	d="
M75.025909,162.981628 
	C75.146706,163.107773 75.246498,163.251862 75.346291,163.395935 
	C75.263115,163.356476 75.179939,163.317017 75.032669,163.159332 
	C74.968575,163.041107 75.004913,162.999542 75.025909,162.981628 
z"/>
<path fill="#000000" opacity="1.000000" stroke="none" 
	d="
M321.717651,117.566666 
	C321.958954,117.532585 322.401489,117.782104 322.611511,118.201660 
	C322.225616,118.197884 322.072235,118.024071 321.717651,117.566666 
z"/>
<path fill="#060909" opacity="1.000000" stroke="none" 
	d="
M228.657196,102.996017 
	C229.902023,105.701302 230.678543,108.400543 231.618225,111.666946 
	C222.712845,111.666946 214.846359,111.666946 206.631897,111.666946 
	C206.631897,109.100922 206.631897,106.385826 206.631897,102.989975 
	C213.759811,102.989975 220.974350,102.989975 228.657196,102.996017 
z"/>
<path fill="#188835" opacity="1.000000" stroke="none" 
	d="
M105.014771,111.766151 
	C104.814522,111.969307 104.627876,111.969475 104.164734,111.923141 
	C104.034782,111.575562 104.263901,111.363831 104.810555,111.199036 
	C105.045517,111.156624 105.028374,111.563156 105.014771,111.766151 
z"/>
<path fill="#F9CF07" opacity="1.000000" stroke="none" 
	d="
M43.557571,154.741180 
	C43.940548,154.543915 44.246052,154.427567 44.766956,154.190399 
	C49.218605,152.734085 53.262733,149.336441 58.279797,152.880249 
	C59.401577,154.111313 60.184715,155.367416 61.105362,156.983841 
	C60.259827,164.011810 55.405041,166.513626 49.299965,168.075653 
	C50.359287,165.965515 51.804501,163.865112 53.498260,161.403488 
	C52.184788,161.153793 50.876793,160.905136 49.568794,160.656479 
	C49.794247,160.210037 50.019703,159.763596 50.245155,159.317139 
	C49.089802,158.519867 47.934444,157.722595 46.396088,156.975708 
	C45.603401,156.983414 45.193707,156.940720 44.354271,156.657379 
	C43.705219,155.922455 43.485909,155.428162 43.266594,154.933868 
	C43.266594,154.933868 43.485832,154.837158 43.557571,154.741180 
z"/>
<path fill="#000000" opacity="1.000000" stroke="none" 
	d="
M35.385361,169.467346 
	C34.998459,169.198868 34.888214,168.839066 34.777969,168.479263 
	C35.137127,168.545670 35.496281,168.612091 36.017288,168.893005 
	C36.006760,169.197006 35.834389,169.286514 35.385361,169.467346 
z"/>
<path fill="#000000" opacity="1.000000" stroke="none" 
	d="
M53.766762,171.682831 
	C54.002541,171.601395 54.481091,171.805099 54.760494,172.241577 
	C54.377407,172.305557 54.193470,172.136749 53.766762,171.682831 
z"/>
<path fill="#3F4441" opacity="1.000000" stroke="none" 
	d="
M71.774612,134.759949 
	C73.304314,137.455582 74.679108,139.874237 76.028893,142.656921 
	C73.598740,140.435974 71.193596,137.850998 68.504417,135.113098 
	C68.146332,134.232391 68.072289,133.504623 68.022552,132.411606 
	C70.507935,130.996201 71.130913,132.641220 71.774612,134.759949 
z"/>
<path fill="#161616" opacity="1.000000" stroke="none" 
	d="
M80.736526,122.971710 
	C80.731087,124.110321 80.501396,125.250107 80.146843,126.721481 
	C79.065445,128.066071 78.108910,129.079086 76.874413,130.146057 
	C75.564896,129.989838 74.533348,129.779678 72.379883,129.340958 
	C74.134346,127.870949 75.198906,126.978996 76.882446,125.879868 
	C78.355591,124.768356 79.209763,123.864006 80.063934,122.959656 
	C80.063934,122.959656 80.512268,122.972893 80.736526,122.971710 
z"/>
<path fill="#183F21" opacity="1.000000" stroke="none" 
	d="
M80.060806,122.703232 
	C79.209763,123.864006 78.355591,124.768356 77.227394,125.827080 
	C77.101524,124.485733 77.249687,122.989998 77.687912,121.259018 
	C78.464424,121.315117 78.950867,121.606468 79.734734,121.916191 
	C80.040657,122.105316 80.049171,122.276062 80.060806,122.703232 
z"/>
<path fill="#060909" opacity="1.000000" stroke="none" 
	d="
M64.997482,158.001923 
	C64.889481,157.875275 64.784004,157.746689 64.678520,157.618103 
	C64.753021,157.662628 64.827522,157.707169 64.953003,157.873108 
	C65.003990,157.994507 65.000000,158.000000 64.997482,158.001923 
z"/>
<path fill="#188835" opacity="1.000000" stroke="none" 
	d="
M75.741043,144.432007 
	C75.776367,144.444778 75.806953,144.454956 75.794907,144.461639 
	C75.782867,144.468307 75.705719,144.419250 75.741043,144.432007 
z"/>
<path fill="#E14202" opacity="1.000000" stroke="none" 
	d="
M43.017624,155.049561 
	C43.485909,155.428162 43.705219,155.922455 44.045372,156.665222 
	C43.700356,156.330872 43.234505,155.748062 43.017624,155.049561 
z"/>
<path fill="#161616" opacity="1.000000" stroke="none" 
	d="
M84.772484,121.084946 
	C84.924454,121.331261 84.758072,121.589279 84.235466,121.792435 
	C84.140228,121.555695 84.331856,121.342049 84.772484,121.084946 
z"/>
<path fill="#E6E6E6" opacity="1.000000" stroke="none" 
	d="
M122.061142,110.062599 
	C127.402107,109.329742 132.743073,108.596886 138.430267,108.240311 
	C138.191360,109.531502 137.606262,110.446396 137.021149,111.361290 
	C132.312775,111.338364 127.604401,111.315437 122.496689,110.913269 
	C122.097343,110.534012 122.061142,110.062599 122.061142,110.062599 
z"/>
<path fill="#8DCC97" opacity="1.000000" stroke="none" 
	d="
M137.318054,111.555298 
	C137.606262,110.446396 138.191360,109.531502 138.886871,108.307816 
	C140.282455,108.781395 141.567642,109.563774 142.852844,110.346153 
	C142.639297,110.813873 142.425751,111.281593 142.212219,111.749313 
	C140.679794,111.749313 139.147369,111.749313 137.318054,111.555298 
z"/>
<path fill="#188835" opacity="1.000000" stroke="none" 
	d="
M109.958939,116.617012 
	C108.344505,115.535751 106.704140,114.114044 105.047615,112.347382 
	C106.665298,113.427147 108.299149,114.851852 109.958939,116.617012 
z"/>
<path fill="#8DCC97" opacity="1.000000" stroke="none" 
	d="
M121.842987,110.097488 
	C122.061142,110.062599 122.097343,110.534012 122.049713,110.765549 
	C121.793358,110.829941 121.574913,110.672249 121.389809,110.482101 
	C121.369659,110.461411 121.541855,110.253464 121.842987,110.097488 
z"/>
</svg>