<svg version="1.1" id="Layer_1" xmlns="http://www.w3.org/2000/svg" xmlns:xlink="http://www.w3.org/1999/xlink" x="0px" y="0px"
	 width="100%" viewBox="0 0 200 200" enable-background="new 0 0 200 200" xml:space="preserve">
<path fill="#000000" opacity="1.000000" stroke="none" 
	d="
M136.000000,201.000000 
	C90.666672,201.000000 45.833340,201.000000 1.000006,201.000000 
	C1.000004,134.333344 1.000004,67.666679 1.000002,1.000015 
	C67.666656,1.000010 134.333313,1.000010 200.999969,1.000005 
	C200.999985,67.666649 200.999985,134.333298 201.000000,200.999969 
	C179.500000,201.000000 158.000000,201.000000 136.000000,201.000000 
M14.313012,146.580597 
	C14.313012,146.580597 13.985630,146.923447 13.497088,147.165421 
	C12.976381,147.665283 12.455674,148.165146 11.331472,148.965393 
	C9.923871,150.302246 8.516271,151.639099 6.727284,153.338165 
	C10.119043,153.188812 12.540487,153.082184 14.105798,153.349289 
	C12.657108,154.578720 11.208419,155.808151 9.759729,157.037582 
	C10.041261,157.506088 10.322793,157.974594 10.604325,158.443100 
	C12.760486,157.654007 14.916647,156.864929 17.708420,156.026642 
	C18.127987,156.079010 18.547554,156.131378 19.124043,156.687576 
	C19.087826,157.460770 19.051611,158.233978 18.999466,158.999390 
	C18.999466,158.999390 19.008871,159.013992 18.395224,159.186508 
	C17.089355,160.045685 15.783486,160.904877 14.477618,161.764053 
	C14.795031,162.203369 15.112444,162.642685 15.429857,163.082001 
	C16.612068,162.995880 17.794277,162.909775 19.731266,162.937515 
	C21.933178,162.086548 24.135090,161.235596 27.058517,160.193375 
	C28.242397,159.826111 29.426277,159.458847 31.183819,159.342758 
	C31.866634,158.965012 32.549450,158.587250 33.834747,158.010361 
	C34.440777,157.822556 35.046806,157.634766 36.374931,157.615067 
	C37.113434,157.574875 37.851940,157.534683 38.995289,157.957260 
	C39.140083,158.102325 39.284874,158.247375 39.237816,159.034805 
	C38.314350,160.384399 37.390884,161.733994 36.935879,162.398972 
	C37.870071,164.546097 38.525604,166.052765 39.094536,167.360382 
	C41.501007,166.603821 43.907974,165.847107 46.314938,165.090393 
	C46.765747,165.432770 47.216553,165.775162 47.667358,166.117538 
	C48.219894,163.290863 48.772430,160.464188 49.193604,157.507080 
	C49.193604,157.507080 49.008862,157.518845 49.655746,157.298965 
	C49.979633,156.734299 50.303520,156.169617 51.151955,155.144943 
	C51.339920,154.056305 51.527882,152.967682 51.832062,151.406937 
	C51.832062,151.406937 51.918015,150.928375 52.346222,150.936401 
	C52.346222,150.936401 52.771660,150.887100 53.606953,150.942123 
	C59.717464,150.389816 60.147278,155.192352 61.102432,159.719650 
	C62.347515,158.293182 62.768036,157.070740 63.503628,156.082916 
	C64.914940,154.187683 66.208481,151.704834 68.144402,150.908249 
	C69.132294,150.501770 71.659439,152.996552 73.048035,154.570602 
	C76.387657,158.356232 78.730743,163.407196 85.588867,163.421082 
	C88.394478,163.272552 91.200096,163.124023 94.630257,163.292633 
	C97.832840,163.947418 100.134750,168.432877 104.804123,165.571655 
	C105.207153,165.692764 105.610176,165.813873 106.289780,166.634872 
	C108.914032,166.621811 111.538277,166.608749 115.002632,166.782227 
	C117.696976,166.533798 120.391327,166.285370 123.878853,166.059586 
	C131.241348,166.352142 138.603836,166.644684 146.623779,167.411545 
	C148.243973,167.602798 149.859390,167.881546 151.485168,167.970078 
	C158.322784,168.342514 165.163483,168.658112 172.605667,169.289871 
	C174.416855,170.354034 176.228043,171.418182 178.039230,172.482346 
	C178.339020,171.952927 178.638824,171.423523 178.938629,170.894119 
	C176.626358,169.592545 174.314102,168.290970 171.518433,166.592529 
	C162.654648,166.078629 153.790878,165.564743 144.005951,165.054184 
	C138.869171,164.929260 133.732864,164.754089 128.595367,164.705811 
	C126.717339,164.688156 124.836494,164.971832 122.348511,164.950760 
	C121.565598,164.669342 120.782677,164.387939 119.761940,163.415237 
	C116.467926,162.708313 113.173912,162.001404 109.325592,161.198181 
	C108.829483,160.943573 108.333382,160.688950 107.770424,159.734528 
	C107.143829,158.007584 106.445663,156.298294 106.008087,154.524719 
	C105.967064,154.358459 107.598885,153.401413 108.406242,153.460815 
	C119.817139,154.300430 131.223145,155.213821 142.621384,156.211578 
	C144.770889,156.399750 146.881531,157.032303 149.010101,157.459778 
	C148.620300,156.130203 148.015030,155.535049 147.304916,155.356247 
	C136.490860,152.633301 125.661819,150.019302 114.346382,151.325897 
	C110.599663,151.758530 107.631790,151.102982 107.885330,146.259766 
	C107.934700,145.316620 107.590057,144.247009 107.125343,143.401627 
	C105.391228,140.247131 106.597954,138.347641 109.622391,137.200500 
	C118.217827,133.940292 126.778748,130.578308 135.454422,127.545822 
	C138.831024,126.365555 142.547485,126.186913 145.984055,125.141045 
	C149.904297,123.947990 153.640427,122.162041 157.535049,120.870369 
	C167.786118,117.470535 177.243774,112.886581 184.552063,103.620758 
	C188.022400,99.728767 189.481003,95.181747 188.982758,89.222580 
	C187.488693,80.176315 179.489944,73.993599 167.372757,72.553833 
	C154.862305,69.801651 142.425842,70.499893 129.990448,73.170540 
	C128.224594,73.549789 124.998825,73.683495 124.612831,72.884880 
	C121.861122,67.191635 118.300690,68.877617 113.988365,70.667450 
	C110.677246,72.041740 106.390076,74.761749 103.896904,69.283264 
	C100.945488,62.797817 94.918396,61.556080 88.779457,59.744354 
	C88.558281,59.739803 88.337097,59.735252 88.115921,59.730698 
	C88.414467,59.816822 88.713020,59.902946 89.201088,60.635876 
	C91.309380,62.195698 94.026360,63.351788 95.388992,65.406189 
	C97.659348,68.829109 99.062088,72.827507 100.830147,76.583588 
	C95.445534,80.862213 93.559036,89.012733 85.500183,90.384224 
	C84.607574,90.536125 83.846260,91.459534 82.266541,91.969604 
	C79.174431,90.983963 76.082321,89.998329 72.340141,88.689957 
	C66.892525,87.465889 61.444904,86.241829 55.498592,84.594925 
	C54.659351,84.404114 53.820110,84.213303 52.130280,84.015724 
	C50.428459,84.020554 48.726639,84.025375 46.433720,84.371140 
	C43.993069,85.910179 43.470184,88.158157 45.216175,90.241753 
	C48.244812,93.856003 51.309654,97.592804 54.989239,100.473625 
	C60.826427,105.043671 61.029045,104.975662 55.379356,109.450050 
	C54.112759,110.453163 53.130886,111.815796 52.003792,113.005310 
	C52.003792,113.005310 52.011517,113.017624 51.251041,113.010170 
	C50.489986,113.021408 49.728931,113.032639 48.318047,112.741722 
	C43.754223,111.974068 41.775982,113.712151 41.245895,117.437927 
	C40.775940,120.741096 39.089832,123.871254 37.473980,126.496674 
	C35.677197,121.552673 33.880413,116.608673 32.083630,111.664673 
	C31.562515,114.688629 32.248173,117.345230 32.612499,120.045197 
	C32.928543,122.387383 32.880619,124.778679 32.422596,127.113388 
	C32.232037,127.106743 32.041477,127.100090 31.492809,126.552361 
	C29.496552,125.184296 27.500296,123.816223 25.504038,122.448158 
	C25.244194,122.771881 24.984350,123.095612 24.724504,123.419334 
	C25.686802,125.070953 26.649099,126.722572 27.840616,128.871811 
	C28.043213,129.175140 28.245811,129.478455 28.228817,130.456268 
	C27.369589,131.511047 26.510361,132.565811 25.082508,133.806137 
	C24.377293,134.176178 23.672077,134.546219 22.442505,134.957230 
	C22.160725,135.156525 21.878944,135.355804 21.213524,135.854294 
	C21.004511,136.114594 20.879698,136.410431 20.165968,136.835617 
	C18.815407,137.550186 17.464848,138.264740 15.425481,138.981766 
	C13.989547,139.917313 12.553614,140.852844 9.941941,142.554398 
	C13.684294,142.171906 15.900110,141.945450 19.187080,141.609497 
	C17.528938,143.500229 16.604605,144.554214 15.306600,145.785858 
	C15.060896,145.929642 14.873113,146.128204 14.313012,146.580597 
M77.212845,64.281021 
	C77.444855,64.283546 77.676857,64.286064 77.908867,64.288582 
	C77.616180,64.182495 77.323494,64.076416 76.871140,63.295403 
	C74.676231,61.642014 72.703407,59.131996 70.245079,58.494637 
	C62.641445,56.523273 54.852879,55.265240 47.885170,53.879246 
	C52.904678,58.411613 58.438797,63.408646 64.011063,68.440132 
	C63.714336,65.985573 63.460960,63.889614 63.207584,61.793655 
	C65.775818,61.801891 68.385841,61.530098 70.899338,61.905148 
	C72.986755,62.216625 74.960602,63.289253 77.212845,64.281021 
M89.555458,46.118114 
	C90.925385,49.072903 92.295319,52.027691 93.070297,53.699234 
	C97.462837,53.007538 101.130630,52.429970 104.752388,51.859650 
	C99.264687,48.594707 93.549065,45.194164 87.017906,41.308411 
	C88.044037,43.247719 88.637482,44.369293 89.555458,46.118114 
M16.857840,101.972061 
	C15.795290,102.053818 14.732741,102.135574 13.658711,102.218208 
	C17.122040,103.498413 20.458683,104.731781 23.795326,105.965149 
	C23.749535,105.704666 23.703743,105.444183 23.657951,105.183701 
	C29.491056,105.183701 35.324162,105.183701 42.355984,105.183701 
	C33.912251,99.128586 25.740650,100.886658 16.857840,101.972061 
M39.443336,69.255615 
	C40.018482,67.425941 40.593624,65.596268 41.339672,63.222919 
	C36.221619,67.142937 35.513618,72.712105 39.617630,77.718605 
	C39.470253,74.693481 39.355923,72.346695 39.443336,69.255615 
M90.767265,72.673744 
	C89.539505,72.169296 88.311745,71.664848 85.801117,70.633301 
	C86.979462,73.788383 87.654701,75.596359 88.429626,77.671280 
	C90.151138,76.497139 91.379158,75.753212 92.436188,74.816360 
	C92.563744,74.703308 91.766487,73.546822 90.767265,72.673744 
M34.096695,165.442123 
	C34.075405,165.666183 34.054115,165.890259 34.032829,166.114319 
	C34.112156,165.874832 34.191483,165.635330 34.096695,165.442123 
M40.470268,79.495323 
	C40.470268,79.495323 40.514210,79.477348 40.470268,79.495323 
z"/>
<path fill="#07080A" opacity="1.000000" stroke="none" 
	d="
M94.005707,162.975494 
	C91.200096,163.124023 88.394478,163.272552 85.300323,162.814102 
	C86.121689,158.687881 85.199303,156.382492 81.928856,154.117935 
	C79.098976,152.158432 77.258270,148.770370 74.990616,146.005646 
	C75.000908,145.997498 75.016479,145.975662 75.330521,145.914322 
	C76.255692,145.281342 76.866837,144.709686 78.060448,143.593201 
	C69.159889,144.811996 61.170525,145.906006 53.087532,146.754639 
	C52.937313,146.343567 52.880726,146.177887 52.821114,145.723694 
	C52.555923,144.957123 52.293755,144.479050 52.317226,143.904480 
	C54.078171,140.307220 52.447979,138.652252 49.079887,137.763184 
	C49.014202,137.535187 48.953548,137.064514 49.109974,136.849380 
	C48.579739,136.058167 47.893078,135.482086 47.098831,134.582611 
	C47.000511,132.497803 47.009773,130.736374 47.327374,129.129822 
	C50.768333,132.911972 53.900955,136.539230 57.225647,140.388901 
	C57.225647,138.739532 57.225647,137.437561 57.482471,136.361053 
	C61.404457,135.862350 65.069618,135.138184 68.926254,134.649017 
	C69.701019,134.451431 70.284317,134.018845 70.897736,133.246460 
	C69.579147,130.662750 68.230453,128.418823 66.825966,125.856300 
	C66.186584,124.687737 65.602989,123.837784 64.894562,122.771400 
	C64.769737,122.554962 64.599792,122.085045 64.985092,122.065269 
	C68.480904,121.198303 70.226250,122.615593 71.531502,125.367775 
	C74.179169,130.950500 76.989731,136.458435 79.869492,141.925400 
	C80.218941,142.588791 81.408051,142.809875 83.608498,143.981888 
	C81.397209,138.438263 79.714096,134.218765 78.495262,129.893829 
	C79.259918,129.685867 79.560287,129.583298 80.148102,129.368637 
	C85.243645,127.170090 90.051735,125.083649 95.284088,122.958229 
	C96.271736,122.844147 96.835121,122.769028 97.701096,122.648560 
	C99.199791,122.335419 100.395897,122.067619 101.936890,121.948166 
	C110.392639,122.814537 113.466431,121.535408 115.250748,116.609863 
	C116.301254,116.212280 117.103905,116.007576 118.095695,115.982712 
	C118.856934,115.769867 119.429039,115.377167 120.291924,114.796303 
	C122.335930,114.038574 124.089157,113.469009 126.164238,112.868095 
	C127.347229,112.202126 128.208359,111.567513 129.449402,110.969360 
	C130.842682,110.920609 131.856064,110.835396 133.144531,110.998589 
	C136.113968,112.514984 138.166504,112.218956 139.315338,108.807281 
	C140.750900,108.416031 141.872864,108.173859 143.110596,108.268112 
	C145.577423,109.167267 148.140854,110.607162 150.233002,110.100571 
	C153.983749,109.192375 157.508179,107.226555 161.004303,105.459572 
	C162.153687,104.878670 162.922897,103.545601 164.102554,102.378494 
	C165.228119,101.789337 166.117065,101.378166 167.372238,100.977036 
	C169.502243,100.349106 171.266022,99.711143 173.376556,99.037949 
	C175.138550,98.296402 176.553818,97.590103 178.289307,96.847473 
	C179.676483,95.873016 180.743454,94.934883 181.920624,93.750320 
	C182.093857,93.335312 182.156860,93.166733 182.570389,92.973831 
	C184.943054,91.966026 186.965164,90.982544 188.987289,89.999062 
	C189.481003,95.181747 188.022400,99.728767 183.854065,103.810501 
	C181.093307,104.462715 178.619751,104.348846 177.033295,105.479607 
	C165.217911,113.901123 151.718048,118.753365 138.353729,123.795349 
	C135.098404,125.023483 131.092972,124.172661 127.458694,124.538483 
	C126.262886,124.658852 125.039215,125.453636 124.030205,126.209549 
	C123.032898,126.956711 122.421677,128.677109 121.416397,128.885223 
	C110.836456,131.075546 101.486382,138.483414 89.846390,136.385986 
	C89.108536,136.253036 88.035217,137.981766 87.117958,138.844421 
	C88.150421,139.484695 89.291962,140.795074 90.196236,140.647873 
	C93.883827,140.047577 97.498825,139.001312 102.196854,137.863556 
	C103.078857,140.318817 104.921173,143.028183 104.785828,145.634872 
	C104.580421,149.591095 103.001495,153.475998 101.739746,157.539261 
	C99.719147,158.821442 97.964851,159.955551 95.897156,161.141525 
	C95.057739,161.787415 94.531723,162.381454 94.005707,162.975494 
M96.624374,150.869476 
	C97.108047,150.274078 97.591721,149.678680 98.694374,148.914062 
	C99.569496,147.914017 100.444626,146.913956 101.319748,145.913910 
	C100.859680,145.623627 100.399612,145.333359 99.939545,145.043091 
	C99.269035,146.340652 98.598518,147.638229 97.358826,149.137817 
	C96.891251,149.750534 96.423676,150.363235 95.709335,151.210022 
	C95.707085,151.444275 95.704826,151.678543 95.702576,151.912796 
	C95.819366,151.627274 95.936165,151.341766 96.624374,150.869476 
M68.102730,141.496201 
	C70.596756,140.730331 73.090782,139.964462 75.584808,139.198578 
	C75.347702,138.502884 75.110603,137.807175 74.873497,137.111481 
	C71.048523,138.357040 67.223549,139.602600 63.398575,140.848160 
	C63.558380,141.385757 63.718182,141.923355 63.877987,142.460953 
	C65.071579,142.164230 66.265167,141.867508 68.102730,141.496201 
M95.663918,130.900787 
	C96.195351,131.350327 96.726791,131.799850 97.258224,132.249390 
	C97.595329,131.604156 97.932442,130.958939 98.269554,130.313705 
	C97.485626,130.341461 96.701706,130.369232 95.663918,130.900787 
M90.806732,153.806168 
	C90.420052,154.192719 90.033371,154.579269 89.646690,154.965820 
	C90.047699,155.102371 90.448708,155.238907 90.849716,155.375458 
	C90.980911,154.858109 91.112106,154.340744 90.806732,153.806168 
z"/>
<path fill="#141414" opacity="1.000000" stroke="none" 
	d="
M83.024063,92.025131 
	C83.846260,91.459534 84.607574,90.536125 85.500183,90.384224 
	C93.559036,89.012733 95.445534,80.862213 100.830147,76.583588 
	C99.062088,72.827507 97.659348,68.829109 95.388992,65.406189 
	C94.026360,63.351788 91.309380,62.195698 89.100983,60.317497 
	C89.000885,59.999123 88.994324,60.009670 88.994324,60.009670 
	C94.918396,61.556080 100.945488,62.797817 103.896904,69.283264 
	C106.390076,74.761749 110.677246,72.041740 113.988365,70.667450 
	C118.300690,68.877617 121.861122,67.191635 124.612831,72.884880 
	C124.998825,73.683495 128.224594,73.549789 129.990448,73.170540 
	C142.425842,70.499893 154.862305,69.801651 167.872955,73.052673 
	C169.898788,74.752571 171.424423,75.953621 172.585999,77.094589 
	C170.203354,76.358841 168.231995,75.381645 166.158463,75.056953 
	C153.643219,73.097214 141.203857,73.067513 128.686768,77.098068 
	C127.594902,77.419342 126.816689,77.722099 125.678528,77.971062 
	C124.215347,78.302826 123.112129,78.688385 121.760498,79.055084 
	C121.512085,79.036224 121.017212,79.094154 120.654259,79.145973 
	C116.052116,80.793304 111.812927,82.388817 107.306122,84.055176 
	C106.356148,84.763947 105.673790,85.401878 104.610321,86.023872 
	C102.967041,86.340149 101.610718,86.478226 100.458488,87.037109 
	C94.449364,89.951820 88.401489,92.812149 82.585083,96.079468 
	C81.249214,96.829895 80.770912,99.106941 79.561760,100.831207 
	C78.832619,101.261887 78.439659,101.542793 77.740662,101.849487 
	C77.034943,101.964279 76.635246,102.053276 75.891891,102.116287 
	C74.706642,102.351074 73.865059,102.611855 72.762283,102.918823 
	C72.325378,102.984726 72.149658,103.004440 71.917282,103.010559 
	C71.860641,102.996971 71.843613,102.881729 71.794128,102.654068 
	C71.562073,102.159203 71.323311,101.958855 71.100082,101.561066 
	C71.445793,99.611023 71.719788,97.925270 72.090302,95.645653 
	C73.710159,96.984810 74.821716,97.903748 76.229088,99.067238 
	C78.634384,96.574455 80.829224,94.299797 83.024063,92.025131 
z"/>
<path fill="#080A0A" opacity="1.000000" stroke="none" 
	d="
M102.006027,157.391190 
	C103.001495,153.475998 104.580421,149.591095 104.785828,145.634872 
	C104.921173,143.028183 103.078857,140.318817 102.196854,137.863556 
	C97.498825,139.001312 93.883827,140.047577 90.196236,140.647873 
	C89.291962,140.795074 88.150421,139.484695 87.117958,138.844421 
	C88.035217,137.981766 89.108536,136.253036 89.846390,136.385986 
	C101.486382,138.483414 110.836456,131.075546 121.416397,128.885223 
	C122.421677,128.677109 123.032898,126.956711 124.030205,126.209549 
	C125.039215,125.453636 126.262886,124.658852 127.458694,124.538483 
	C131.092972,124.172661 135.098404,125.023483 138.353729,123.795349 
	C151.718048,118.753365 165.217911,113.901123 177.033295,105.479607 
	C178.619751,104.348846 181.093307,104.462715 183.565582,103.999008 
	C177.243774,112.886581 167.786118,117.470535 157.535049,120.870369 
	C153.640427,122.162041 149.904297,123.947990 145.984055,125.141045 
	C142.547485,126.186913 138.831024,126.365555 135.454422,127.545822 
	C126.778748,130.578308 118.217827,133.940292 109.622391,137.200500 
	C106.597954,138.347641 105.391228,140.247131 107.125343,143.401627 
	C107.590057,144.247009 107.934700,145.316620 107.885330,146.259766 
	C107.631790,151.102982 110.599663,151.758530 114.346382,151.325897 
	C125.661819,150.019302 136.490860,152.633301 147.304916,155.356247 
	C148.015030,155.535049 148.620300,156.130203 149.010101,157.459778 
	C146.881531,157.032303 144.770889,156.399750 142.621384,156.211578 
	C131.223145,155.213821 119.817139,154.300430 108.406242,153.460815 
	C107.598885,153.401413 105.967064,154.358459 106.008087,154.524719 
	C106.445663,156.298294 107.143829,158.007584 107.478577,159.984497 
	C105.459839,159.286713 103.732933,158.338943 102.006027,157.391190 
z"/>
<path fill="#07080A" opacity="1.000000" stroke="none" 
	d="
M82.645302,91.997375 
	C80.829224,94.299797 78.634384,96.574455 76.229088,99.067238 
	C74.821716,97.903748 73.710159,96.984810 72.090302,95.645653 
	C71.719788,97.925270 71.445793,99.611023 71.112091,101.824013 
	C71.316116,102.528076 71.579865,102.704903 71.843613,102.881729 
	C71.843613,102.881729 71.860641,102.996971 71.978416,103.386169 
	C70.232979,106.256927 68.369774,108.738487 66.714333,110.943314 
	C68.865150,113.663002 70.909065,116.247513 72.559929,118.758331 
	C70.784805,118.108086 69.402740,117.531517 67.819580,116.757690 
	C67.102623,116.349136 66.586746,116.137848 66.002930,115.649117 
	C65.415710,114.745651 64.896423,114.119621 64.377136,113.493599 
	C64.137871,113.723457 63.898598,113.953316 63.659328,114.183182 
	C64.412628,114.814171 65.165932,115.445160 65.911621,116.432442 
	C65.209053,118.239334 64.514099,119.689934 63.564632,120.952423 
	C62.535477,119.761871 61.760822,118.759415 60.889839,117.476410 
	C59.864105,116.133186 58.934704,115.070511 58.006695,113.672699 
	C58.004372,112.890709 58.000652,112.443855 58.322853,111.974304 
	C59.283318,111.397644 59.917862,110.843681 60.552406,110.289719 
	C60.200100,109.991920 59.847794,109.694122 59.495487,109.396324 
	C58.997917,110.265228 58.500347,111.134140 57.621361,112.020050 
	C55.499275,112.362350 53.758606,112.687637 52.017937,113.012924 
	C53.130886,111.815796 54.112759,110.453163 55.379356,109.450050 
	C61.029045,104.975662 60.826427,105.043671 54.989239,100.473625 
	C51.309654,97.592804 48.244812,93.856003 45.216175,90.241753 
	C43.470184,88.158157 43.993069,85.910179 46.764900,84.570427 
	C49.539165,88.312645 51.537266,88.351074 52.980865,84.022491 
	C53.820110,84.213303 54.659351,84.404114 55.648853,85.086166 
	C56.317112,86.638283 56.636715,88.442337 57.384621,88.641991 
	C63.160049,90.183754 69.018372,91.414986 75.328987,92.851250 
	C74.330307,91.212151 73.660255,90.112419 72.990211,89.012688 
	C76.082321,89.998329 79.174431,90.983963 82.645302,91.997375 
M51.009258,93.319611 
	C50.802166,93.084648 50.569412,92.878670 50.196533,92.198418 
	C49.720203,92.011078 49.243874,91.823730 48.767544,91.636391 
	C49.137028,92.138344 49.506508,92.640305 50.136906,93.531586 
	C50.337479,93.777069 50.576340,93.976753 51.111694,94.533531 
	C51.317909,94.782494 51.563213,94.983818 52.097187,95.405579 
	C52.241032,95.416023 52.384880,95.426460 52.528725,95.436905 
	C52.463467,95.179665 52.398209,94.922424 52.049904,94.277985 
	C51.852207,94.014458 51.602745,93.816002 51.009258,93.319611 
M56.078629,98.370102 
	C56.193779,98.387512 56.308926,98.404915 56.424076,98.422325 
	C56.356068,98.215034 56.288063,98.007736 56.041340,97.313736 
	C55.579311,97.115669 55.117279,96.917603 54.655247,96.719543 
	C55.062767,97.193954 55.470284,97.668365 56.078629,98.370102 
M58.986607,99.493614 
	C58.848892,99.487572 58.711178,99.481537 58.573460,99.475494 
	C58.650661,99.709290 58.727859,99.943077 59.199089,100.677017 
	C60.463543,101.438507 61.728001,102.199997 63.367680,103.430969 
	C63.879417,104.255806 64.391159,105.080650 64.468788,106.023857 
	C64.199753,106.334053 63.930710,106.644241 63.661674,106.954437 
	C64.126488,106.661865 64.591301,106.369301 65.633034,105.905884 
	C66.421638,105.189392 67.210251,104.472900 68.317619,103.466782 
	C66.228592,102.868988 64.667854,102.422371 62.704266,101.453842 
	C61.550472,100.880074 60.396683,100.306305 58.986607,99.493614 
z"/>
<path fill="#080A0A" opacity="1.000000" stroke="none" 
	d="
M53.181160,147.000031 
	C61.170525,145.906006 69.159889,144.811996 78.060448,143.593201 
	C76.866837,144.709686 76.255692,145.281342 75.288353,145.850250 
	C74.932152,145.847534 74.748260,145.844147 74.748260,145.844147 
	C74.748260,145.844147 74.980316,146.013779 74.980316,146.013779 
	C77.258270,148.770370 79.098976,152.158432 81.928856,154.117935 
	C85.199303,156.382492 86.121689,158.687881 85.007172,162.595627 
	C78.730743,163.407196 76.387657,158.356232 73.048035,154.570602 
	C71.659439,152.996552 69.132294,150.501770 68.144402,150.908249 
	C66.208481,151.704834 64.914940,154.187683 63.503628,156.082916 
	C62.768036,157.070740 62.347515,158.293182 61.102432,159.719650 
	C60.147278,155.192352 59.717464,150.389816 53.132786,150.704315 
	C52.477779,150.212524 52.232407,150.068283 51.894463,149.798584 
	C51.866436,149.563416 51.782791,149.097214 51.880394,148.850174 
	C51.997402,148.427124 52.016815,148.251099 52.298904,147.984863 
	C52.768108,147.596451 52.974636,147.298233 53.181160,147.000031 
z"/>
<path fill="#E43A02" opacity="1.000000" stroke="none" 
	d="
M48.953548,137.064514 
	C48.953548,137.064514 49.014202,137.535187 49.087673,138.112335 
	C50.117958,140.459991 51.074768,142.230484 52.031586,144.000977 
	C52.293755,144.479050 52.555923,144.957123 52.464001,145.730316 
	C50.723198,147.564209 49.336483,149.102982 47.645157,150.801254 
	C46.217640,152.070724 45.094742,153.180710 43.595562,154.255264 
	C40.697128,155.295563 38.174980,156.371262 35.652832,157.446960 
	C35.046806,157.634766 34.440777,157.822556 33.237541,158.016724 
	C31.963610,158.379242 31.286882,158.735397 30.610157,159.091568 
	C29.426277,159.458847 28.242397,159.826111 26.319983,160.178101 
	C24.068851,160.485611 22.556255,160.808395 20.747513,161.027695 
	C19.970533,160.287476 19.489700,159.650726 19.008869,159.013992 
	C19.008871,159.013992 18.999466,158.999390 19.323383,158.944061 
	C19.488874,157.314102 19.330448,155.739471 18.947683,153.988770 
	C18.474663,153.525635 18.225979,153.238556 18.257278,152.772064 
	C20.288658,151.712189 22.040054,150.831711 24.101463,149.817261 
	C29.009556,146.756287 28.836714,150.210617 28.943439,153.425537 
	C28.773138,153.851974 28.668016,153.999680 28.654680,154.155243 
	C28.642191,154.300964 28.726919,154.454987 28.768864,154.605362 
	C31.635571,153.732239 34.473663,152.746979 37.374287,152.006760 
	C46.436859,149.694016 49.187199,145.486771 47.746262,136.306030 
	C48.271137,136.624908 48.612343,136.844711 48.953548,137.064514 
M25.076092,152.637451 
	C24.582951,152.938095 24.089809,153.238739 23.596674,153.539383 
	C23.882275,153.838455 24.167877,154.137543 24.453472,154.436630 
	C24.769361,153.951920 25.085253,153.467194 25.076092,152.637451 
z"/>
<path fill="#101110" opacity="1.000000" stroke="none" 
	d="
M57.996933,111.997009 
	C58.000652,112.443855 58.004372,112.890709 57.692131,113.818390 
	C54.050579,116.844116 50.297661,119.016823 47.602791,122.111023 
	C46.472752,123.408516 43.664062,126.453308 47.022354,128.993927 
	C47.014046,129.001175 47.019032,128.974960 47.019035,128.974960 
	C47.009773,130.736374 47.000511,132.497803 47.031246,134.633698 
	C47.071239,135.008194 46.919300,135.078156 46.578506,135.046310 
	C45.788445,134.945572 45.339176,134.876663 44.826141,134.488007 
	C43.180008,132.443710 41.597641,130.719147 40.008316,128.997986 
	C40.001358,129.001404 39.999313,128.987823 39.835136,128.802521 
	C39.377300,128.414871 39.059494,128.364441 38.505276,128.396057 
	C38.293011,128.326233 37.884560,128.144867 37.908459,127.878616 
	C37.935101,127.434166 37.937847,127.255974 37.940590,127.077782 
	C39.089832,123.871254 40.775940,120.741096 41.245895,117.437927 
	C41.775982,113.712151 43.754223,111.974068 48.672195,113.202164 
	C49.494026,114.222710 49.961708,114.782822 50.429390,115.342934 
	C50.956768,114.567833 51.484146,113.792732 52.011520,113.017624 
	C52.011517,113.017624 52.003792,113.005310 52.010864,113.009125 
	C53.758606,112.687637 55.499275,112.362350 57.619972,112.018532 
	C58.000000,112.000000 57.996929,111.997009 57.996933,111.997009 
z"/>
<path fill="#060606" opacity="1.000000" stroke="none" 
	d="
M76.984756,64.024696 
	C74.960602,63.289253 72.986755,62.216625 70.899338,61.905148 
	C68.385841,61.530098 65.775818,61.801891 63.207581,61.793655 
	C63.460960,63.889614 63.714336,65.985573 64.011063,68.440132 
	C58.438797,63.408646 52.904678,58.411613 47.885170,53.879246 
	C54.852879,55.265240 62.641445,56.523273 70.245079,58.494637 
	C72.703407,59.131996 74.676231,61.642014 76.938293,63.645638 
	C77.005447,63.995872 76.984756,64.024696 76.984756,64.024696 
z"/>
<path fill="#080A0A" opacity="1.000000" stroke="none" 
	d="
M172.950073,77.154671 
	C171.424423,75.953621 169.898788,74.752571 168.185883,73.277100 
	C179.489944,73.993599 187.488693,80.176315 188.985016,89.610825 
	C186.965164,90.982544 184.943054,91.966026 182.363953,92.670784 
	C180.559692,88.894012 179.312439,85.395958 178.401459,82.012291 
	C180.101715,84.448647 181.465668,86.770622 182.829636,89.092598 
	C184.029358,87.358429 184.646240,85.308350 183.887543,84.199486 
	C182.692001,82.452187 180.571686,81.337654 178.842850,79.955261 
	C178.609695,80.629349 178.376556,81.303436 177.844391,82.123581 
	C176.811707,81.802055 176.078049,81.334465 175.226074,80.570877 
	C174.388550,79.234810 173.669312,78.194740 172.950073,77.154671 
z"/>
<path fill="#23923F" opacity="1.000000" stroke="none" 
	d="
M101.739738,157.539261 
	C103.732933,158.338943 105.459839,159.286713 107.512009,160.334412 
	C108.333382,160.688950 108.829483,160.943573 109.889725,161.463425 
	C113.635826,162.521286 116.817795,163.313904 119.999756,164.106537 
	C120.782677,164.387939 121.565598,164.669342 122.660828,165.267456 
	C122.973145,165.584167 123.085670,166.036942 123.085670,166.036957 
	C120.391327,166.285370 117.696976,166.533798 114.209869,166.541901 
	C110.949135,166.179382 108.481171,166.057190 106.013199,165.934998 
	C105.610176,165.813873 105.207153,165.692764 104.193962,165.388504 
	C101.126053,163.833466 98.668304,162.461563 96.210556,161.089676 
	C97.964851,159.955551 99.719147,158.821442 101.739738,157.539261 
z"/>
<path fill="#7F0D04" opacity="1.000000" stroke="none" 
	d="
M36.013882,157.531006 
	C38.174980,156.371262 40.697128,155.295563 43.603119,154.627777 
	C43.665958,157.241440 43.344959,159.447189 42.820240,163.052780 
	C45.867577,160.515839 47.596272,159.076675 49.324963,157.637512 
	C48.772430,160.464188 48.219894,163.290863 47.667358,166.117538 
	C47.216553,165.775162 46.765747,165.432770 46.314938,165.090393 
	C43.907974,165.847107 41.501007,166.603821 39.094536,167.360382 
	C38.525604,166.052765 37.870071,164.546097 36.935879,162.398972 
	C37.390884,161.733994 38.314350,160.384399 39.455902,158.524765 
	C39.312805,157.841309 38.951626,157.667892 38.590443,157.494492 
	C37.851940,157.534683 37.113434,157.574875 36.013882,157.531006 
z"/>
<path fill="#DD3201" opacity="1.000000" stroke="none" 
	d="
M29.048687,153.150238 
	C28.836714,150.210617 29.009556,146.756287 23.809223,149.573853 
	C21.350197,149.282150 19.493423,149.099884 17.956762,148.689514 
	C22.126232,147.102936 27.214758,147.466446 27.968296,141.412201 
	C28.271450,140.966171 28.433104,140.708252 28.556732,140.433243 
	C28.565973,140.412689 28.309507,140.207642 28.165821,140.192871 
	C24.149490,139.780090 20.131775,139.380814 16.114286,138.979309 
	C17.464848,138.264740 18.815407,137.550186 20.574564,136.914490 
	C20.983160,136.993378 21.147202,137.232452 21.269915,137.588623 
	C25.758413,138.414185 30.124201,138.883575 34.489986,139.352966 
	C34.742592,139.719589 34.995201,140.086212 35.247807,140.452835 
	C33.288319,141.818222 31.328829,143.183594 28.282192,145.306488 
	C32.578979,145.103378 35.253159,144.976974 39.335075,144.784042 
	C35.108334,148.221771 32.078510,150.686005 29.048687,153.150238 
z"/>
<path fill="#060606" opacity="1.000000" stroke="none" 
	d="
M89.393188,45.804489 
	C88.637482,44.369293 88.044037,43.247719 87.017906,41.308411 
	C93.549065,45.194164 99.264687,48.594707 104.752388,51.859650 
	C101.130630,52.429970 97.462837,53.007538 93.070297,53.699234 
	C92.295319,52.027691 90.925385,49.072903 89.393188,45.804489 
z"/>
<path fill="#070707" opacity="1.000000" stroke="none" 
	d="
M17.258284,101.952042 
	C25.740650,100.886658 33.912251,99.128586 42.355984,105.183701 
	C35.324162,105.183701 29.491056,105.183701 23.657951,105.183701 
	C23.703743,105.444183 23.749535,105.704666 23.795326,105.965149 
	C20.458683,104.731781 17.122040,103.498413 13.658711,102.218208 
	C14.732741,102.135574 15.795290,102.053818 17.258284,101.952042 
z"/>
<path fill="#101110" opacity="1.000000" stroke="none" 
	d="
M72.665176,88.851318 
	C73.660255,90.112419 74.330307,91.212151 75.328987,92.851250 
	C69.018372,91.414986 63.160049,90.183754 57.384621,88.641991 
	C56.636715,88.442337 56.317112,86.638283 55.898201,85.297585 
	C61.444904,86.241829 66.892525,87.465889 72.665176,88.851318 
z"/>
<path fill="#060605" opacity="1.000000" stroke="none" 
	d="
M172.003052,168.994507 
	C165.163483,168.658112 158.322784,168.342514 151.485168,167.970078 
	C149.859390,167.881546 148.243973,167.602798 146.168976,166.938049 
	C145.451828,165.993317 145.189453,165.522079 144.927094,165.050858 
	C153.790878,165.564743 162.654648,166.078629 171.759460,167.125336 
	C172.001343,168.103592 172.002197,168.549057 172.003052,168.994507 
z"/>
<path fill="#921103" opacity="1.000000" stroke="none" 
	d="
M15.769884,138.980530 
	C20.131775,139.380814 24.149490,139.780090 28.165821,140.192871 
	C28.309507,140.207642 28.565973,140.412689 28.556732,140.433243 
	C28.433104,140.708252 28.271450,140.966171 27.611744,141.516830 
	C23.469208,143.274170 19.834175,144.743011 16.068588,146.061661 
	C15.938035,145.911469 15.680271,145.608200 15.680271,145.608200 
	C16.604605,144.554214 17.528938,143.500229 19.187080,141.609497 
	C15.900110,141.945450 13.684294,142.171906 9.941941,142.554398 
	C12.553614,140.852844 13.989547,139.917313 15.769884,138.980530 
z"/>
<path fill="#C62A02" opacity="1.000000" stroke="none" 
	d="
M37.884560,128.144867 
	C37.884560,128.144867 38.293011,128.326233 38.682411,128.558807 
	C39.358440,128.963303 39.667606,129.028793 39.999313,128.987823 
	C39.999313,128.987823 40.001358,129.001404 40.036743,129.361877 
	C40.147331,130.451019 40.222527,131.179657 39.875496,131.945557 
	C36.172230,132.593887 32.891190,133.204987 29.706974,133.549194 
	C30.542522,132.786575 31.281248,132.290802 32.356384,131.569260 
	C30.497082,130.718826 29.472746,130.250305 28.448410,129.781784 
	C28.245811,129.478455 28.043213,129.175140 27.879150,128.318954 
	C29.228762,127.541885 30.539841,127.317665 31.850920,127.093445 
	C32.041477,127.100090 32.232037,127.106743 32.998230,127.349815 
	C35.010765,127.772453 36.447662,127.958664 37.884560,128.144867 
z"/>
<path fill="#921103" opacity="1.000000" stroke="none" 
	d="
M17.636650,148.917603 
	C19.493423,149.099884 21.350197,149.282150 23.499210,149.707825 
	C22.040054,150.831711 20.288658,151.712189 18.004778,152.776489 
	C17.304039,152.969666 17.135786,152.979004 16.752644,152.990707 
	C16.012480,152.987244 15.487205,152.981384 14.961930,152.975525 
	C12.540487,153.082184 10.119043,153.188812 6.727284,153.338165 
	C8.516271,151.639099 9.923871,150.302246 11.701786,149.114197 
	C12.803636,149.459656 13.535172,149.656326 14.469627,149.778870 
	C14.982898,149.653214 15.260983,149.725800 15.747782,149.865097 
	C16.307693,149.719101 16.592651,149.566971 17.030090,149.221283 
	C17.216541,149.091293 17.636650,148.917603 17.636650,148.917603 
z"/>
<path fill="#670D09" opacity="1.000000" stroke="none" 
	d="
M37.908459,127.878616 
	C36.447662,127.958664 35.010765,127.772453 33.283714,127.367256 
	C32.880619,124.778679 32.928543,122.387383 32.612499,120.045197 
	C32.248173,117.345230 31.562515,114.688629 32.083630,111.664673 
	C33.880413,116.608673 35.677197,121.552673 37.707283,126.787231 
	C37.937847,127.255974 37.935101,127.434166 37.908459,127.878616 
z"/>
<path fill="#FAB507" opacity="1.000000" stroke="none" 
	d="
M49.259285,157.572296 
	C47.596272,159.076675 45.867577,160.515839 42.820240,163.052780 
	C43.344959,159.447189 43.665958,157.241440 43.979401,154.663193 
	C45.094742,153.180710 46.217640,152.070724 47.965172,151.117126 
	C48.729488,153.355270 48.869175,155.437057 49.008862,157.518845 
	C49.008862,157.518845 49.193604,157.507080 49.259285,157.572296 
z"/>
<path fill="#0E2A15" opacity="1.000000" stroke="none" 
	d="
M144.466522,165.052521 
	C145.189453,165.522079 145.451828,165.993317 145.840256,166.700897 
	C138.603836,166.644684 131.241348,166.352142 123.482262,166.048264 
	C123.085670,166.036942 122.973145,165.584167 122.965042,165.351105 
	C124.836494,164.971832 126.717339,164.688156 128.595367,164.705811 
	C133.732864,164.754089 138.869171,164.929260 144.466522,165.052521 
z"/>
<path fill="#0A0A0A" opacity="1.000000" stroke="none" 
	d="
M39.342461,69.627762 
	C39.355923,72.346695 39.470253,74.693481 39.617630,77.718605 
	C35.513618,72.712105 36.221619,67.142937 41.339672,63.222919 
	C40.593624,65.596268 40.018482,67.425941 39.342461,69.627762 
z"/>
<path fill="#070707" opacity="1.000000" stroke="none" 
	d="
M91.082565,72.773849 
	C91.766487,73.546822 92.563744,74.703308 92.436188,74.816360 
	C91.379158,75.753212 90.151138,76.497139 88.429626,77.671280 
	C87.654701,75.596359 86.979462,73.788383 85.801117,70.633301 
	C88.311745,71.664848 89.539505,72.169296 91.082565,72.773849 
z"/>
<path fill="#9A1303" opacity="1.000000" stroke="none" 
	d="
M14.533864,153.162415 
	C15.487205,152.981384 16.012480,152.987244 16.622814,153.258362 
	C16.829519,154.374359 16.951164,155.225113 17.072809,156.075836 
	C14.916647,156.864929 12.760486,157.654007 10.604325,158.443100 
	C10.322793,157.974594 10.041261,157.506088 9.759729,157.037582 
	C11.208419,155.808151 12.657108,154.578720 14.533864,153.162415 
z"/>
<path fill="#F24D04" opacity="1.000000" stroke="none" 
	d="
M49.332306,157.408905 
	C48.869175,155.437057 48.729488,153.355270 48.269787,150.957611 
	C49.336483,149.102982 50.723198,147.564209 52.467026,146.018799 
	C52.880726,146.177887 52.937313,146.343567 53.087532,146.754639 
	C52.974636,147.298233 52.768108,147.596451 52.185524,147.850220 
	C51.800575,148.236267 51.791683,148.666733 51.782791,149.097214 
	C51.782791,149.097214 51.866436,149.563416 51.850731,150.022369 
	C51.835026,150.481339 51.918015,150.928375 51.918015,150.928375 
	C51.918015,150.928375 51.832062,151.406937 51.516258,151.880768 
	C51.009441,153.438034 50.818424,154.521500 50.627407,155.604950 
	C50.303520,156.169617 49.979633,156.734299 49.332306,157.408905 
z"/>
<path fill="#810D05" opacity="1.000000" stroke="none" 
	d="
M31.671864,126.822899 
	C30.539841,127.317665 29.228762,127.541885 27.764540,128.070145 
	C26.649099,126.722572 25.686802,125.070953 24.724504,123.419334 
	C24.984350,123.095612 25.244194,122.771881 25.504038,122.448158 
	C27.500296,123.816223 29.496552,125.184296 31.671864,126.822899 
z"/>
<path fill="#080A0A" opacity="1.000000" stroke="none" 
	d="
M95.897156,161.141525 
	C98.668304,162.461563 101.126053,163.833466 103.878082,165.370758 
	C100.134750,168.432877 97.832840,163.947418 94.317978,163.134064 
	C94.531723,162.381454 95.057739,161.787415 95.897156,161.141525 
z"/>
<path fill="#090909" opacity="1.000000" stroke="none" 
	d="
M172.304352,169.142181 
	C172.002197,168.549057 172.001343,168.103592 172.001160,167.323776 
	C174.314102,168.290970 176.626358,169.592545 178.938629,170.894119 
	C178.638824,171.423523 178.339020,171.952927 178.039230,172.482346 
	C176.228043,171.418182 174.416855,170.354034 172.304352,169.142181 
z"/>
<path fill="#080A0A" opacity="1.000000" stroke="none" 
	d="
M119.880844,163.760895 
	C116.817795,163.313904 113.635826,162.521286 110.166878,161.511566 
	C113.173912,162.001404 116.467926,162.708313 119.880844,163.760895 
z"/>
<path fill="#101110" opacity="1.000000" stroke="none" 
	d="
M52.555573,84.019104 
	C51.537266,88.351074 49.539165,88.312645 47.060448,84.399956 
	C48.726639,84.025375 50.428459,84.020554 52.555573,84.019104 
z"/>
<path fill="#080A0A" opacity="1.000000" stroke="none" 
	d="
M106.151489,166.284943 
	C108.481171,166.057190 110.949135,166.179382 113.789818,166.448639 
	C111.538277,166.608749 108.914032,166.621811 106.151489,166.284943 
z"/>
<path fill="#810D05" opacity="1.000000" stroke="none" 
	d="
M28.338614,130.119019 
	C29.472746,130.250305 30.497082,130.718826 32.356384,131.569260 
	C31.281248,132.290802 30.542522,132.786575 29.640644,133.600281 
	C29.477489,133.918243 29.303251,133.920135 28.848461,133.866425 
	C27.479488,133.748672 26.565310,133.684631 25.651131,133.620590 
	C26.510361,132.565811 27.369589,131.511047 28.338614,130.119019 
z"/>
<path fill="#AC1D02" opacity="1.000000" stroke="none" 
	d="
M18.702045,159.100250 
	C19.489700,159.650726 19.970533,160.287476 20.560038,161.217804 
	C20.104635,161.948822 19.540562,162.386246 18.976490,162.823654 
	C17.794277,162.909775 16.612068,162.995880 15.429857,163.082001 
	C15.112444,162.642685 14.795031,162.203369 14.477618,161.764053 
	C15.783486,160.904877 17.089355,160.045685 18.702045,159.100250 
z"/>
<path fill="#C62A02" opacity="1.000000" stroke="none" 
	d="
M25.366817,133.713364 
	C26.565310,133.684631 27.479488,133.748672 28.611038,134.166412 
	C26.268005,135.424225 23.707603,136.328339 21.147202,137.232452 
	C21.147202,137.232452 20.983160,136.993378 20.911121,136.867584 
	C20.879698,136.410431 21.004511,136.114594 21.677525,135.711975 
	C22.416637,135.351852 22.691751,135.134048 22.966862,134.916260 
	C23.672077,134.546219 24.377293,134.176178 25.366817,133.713364 
z"/>
<path fill="#7F0D04" opacity="1.000000" stroke="none" 
	d="
M19.353878,162.880585 
	C19.540562,162.386246 20.104635,161.948822 20.856184,161.321289 
	C22.556255,160.808395 24.068851,160.485611 25.959225,160.273727 
	C24.135090,161.235596 21.933178,162.086548 19.353878,162.880585 
z"/>
<path fill="#07080A" opacity="1.000000" stroke="none" 
	d="
M51.631279,113.013901 
	C51.484146,113.792732 50.956768,114.567833 50.429390,115.342934 
	C49.961708,114.782822 49.494026,114.222710 48.997112,113.353241 
	C49.728931,113.032639 50.489986,113.021408 51.631279,113.013901 
z"/>
<path fill="#DD3201" opacity="1.000000" stroke="none" 
	d="
M17.390615,156.051239 
	C16.951164,155.225113 16.829519,154.374359 16.837704,153.255981 
	C17.135786,152.979004 17.304039,152.969666 17.724794,152.955902 
	C18.225979,153.238556 18.474663,153.525635 18.906509,154.322861 
	C19.048820,155.283249 19.007971,155.733490 18.967121,156.183731 
	C18.547554,156.131378 18.127987,156.079010 17.390615,156.051239 
z"/>
<path fill="#AC1D02" opacity="1.000000" stroke="none" 
	d="
M19.045582,156.435654 
	C19.007971,155.733490 19.048820,155.283249 19.130846,154.498917 
	C19.330448,155.739471 19.488874,157.314102 19.331348,158.947968 
	C19.051611,158.233978 19.087826,157.460770 19.045582,156.435654 
z"/>
<path fill="#9A1303" opacity="1.000000" stroke="none" 
	d="
M14.266710,149.852997 
	C13.535172,149.656326 12.803636,149.459656 12.003533,148.964005 
	C12.455674,148.165146 12.976381,147.665283 13.841825,147.203186 
	C14.338846,147.444763 14.534554,147.590012 14.836504,147.762863 
	C14.899323,147.849014 15.025423,148.020966 14.961031,148.263733 
	C14.686662,148.955338 14.476686,149.404175 14.266710,149.852997 
z"/>
<path fill="#7F0D04" opacity="1.000000" stroke="none" 
	d="
M34.183754,165.418976 
	C34.191483,165.635330 34.112156,165.874832 34.032829,166.114319 
	C34.054115,165.890259 34.075405,165.666183 34.183754,165.418976 
z"/>
<path fill="#B22003" opacity="1.000000" stroke="none" 
	d="
M50.889679,155.374939 
	C50.818424,154.521500 51.009441,153.438034 51.458153,152.116821 
	C51.527882,152.967682 51.339920,154.056305 50.889679,155.374939 
z"/>
<path fill="#7F0D04" opacity="1.000000" stroke="none" 
	d="
M30.896988,159.217163 
	C31.286882,158.735397 31.963610,158.379242 32.936302,158.116287 
	C32.549450,158.587250 31.866634,158.965012 30.896988,159.217163 
z"/>
<path fill="#060606" opacity="1.000000" stroke="none" 
	d="
M77.018127,63.983101 
	C77.323494,64.076416 77.616180,64.182495 77.908867,64.288582 
	C77.676857,64.286064 77.444855,64.283546 77.098801,64.152863 
	C76.984756,64.024696 77.005447,63.995872 77.018127,63.983101 
z"/>
<path fill="#141414" opacity="1.000000" stroke="none" 
	d="
M89.006226,59.994095 
	C88.713020,59.902946 88.414467,59.816822 88.115921,59.730698 
	C88.337097,59.735252 88.558281,59.739803 88.886887,59.877014 
	C88.994324,60.009670 89.000885,59.999123 89.006226,59.994095 
z"/>
<path fill="#9A1303" opacity="1.000000" stroke="none" 
	d="
M14.743249,146.381546 
	C14.873113,146.128204 15.060896,145.929642 15.493435,145.697021 
	C15.680271,145.608200 15.938035,145.911469 16.004219,146.336731 
	C15.722077,147.181656 15.373751,147.601303 15.025423,148.020966 
	C15.025423,148.020966 14.899323,147.849014 14.844461,147.440186 
	C14.774151,146.814758 14.758699,146.598160 14.743249,146.381546 
z"/>
<path fill="#0A0A0A" opacity="1.000000" stroke="none" 
	d="
M40.492241,79.486336 
	C40.514210,79.477348 40.470268,79.495323 40.492241,79.486336 
z"/>
<path fill="#810D05" opacity="1.000000" stroke="none" 
	d="
M22.704685,134.936737 
	C22.691751,135.134048 22.416637,135.351852 21.869343,135.562378 
	C21.878944,135.355804 22.160725,135.156525 22.704685,134.936737 
z"/>
<path fill="#921103" opacity="1.000000" stroke="none" 
	d="
M14.528131,146.481079 
	C14.758699,146.598160 14.774151,146.814758 14.781643,147.354034 
	C14.534554,147.590012 14.338846,147.444763 14.086096,147.082199 
	C13.985630,146.923447 14.313012,146.580597 14.528131,146.481079 
z"/>
<path fill="#B22003" opacity="1.000000" stroke="none" 
	d="
M52.132118,150.932388 
	C51.918015,150.928375 51.835026,150.481339 51.878761,150.257538 
	C52.232407,150.068283 52.477779,150.212524 52.715141,150.676788 
	C52.771660,150.887100 52.346222,150.936401 52.132118,150.932388 
z"/>
<path fill="#1BAA41" opacity="1.000000" stroke="none" 
	d="
M178.065186,81.897911 
	C179.312439,85.395958 180.559692,88.894012 182.013397,92.695114 
	C182.156860,93.166733 182.093857,93.335312 181.585617,93.770546 
	C180.083298,94.986061 179.026184,95.934929 177.969086,96.883797 
	C176.553818,97.590103 175.138550,98.296402 173.110657,98.817123 
	C170.667358,99.410027 168.836700,100.188507 167.006027,100.966995 
	C166.117065,101.378166 165.228119,101.789337 163.711258,102.416313 
	C162.044418,102.729813 161.005463,102.827507 159.794281,102.780197 
	C159.080582,102.945618 158.539124,103.256042 157.666260,103.679214 
	C156.870834,103.820107 156.406815,103.848267 155.766891,103.738922 
	C155.060410,103.932213 154.529816,104.262985 153.635162,104.734177 
	C151.496277,105.210548 149.721451,105.546494 147.773605,105.743828 
	C147.067932,105.919907 146.535294,106.234612 145.680756,106.676987 
	C144.901718,106.854866 144.444595,106.905067 143.792709,106.676437 
	C141.446884,105.192299 139.248001,104.064262 137.153030,102.768265 
	C128.274277,97.275673 121.104919,90.590385 121.017212,79.094154 
	C121.017212,79.094154 121.512085,79.036224 121.972061,79.280029 
	C123.284508,80.145409 124.136986,80.766983 125.409523,81.694839 
	C125.679535,80.119339 125.859009,79.072098 126.038483,78.024849 
	C126.816689,77.722099 127.594902,77.419342 128.864319,77.368759 
	C131.537399,79.085617 133.719254,80.550301 136.216827,82.300774 
	C142.946701,82.665291 149.362381,82.862106 155.774475,82.779915 
	C159.835327,82.727867 163.890854,82.260071 168.361435,81.976639 
	C170.964203,81.605309 173.154297,81.236092 175.344391,80.866875 
	C176.078049,81.334465 176.811707,81.802055 177.800934,82.127167 
	C178.056488,81.984680 178.065186,81.897911 178.065186,81.897911 
M130.957550,89.448242 
	C130.560562,89.554947 130.163574,89.661644 129.766586,89.768341 
	C129.862411,90.033897 129.958252,90.299446 130.054077,90.564995 
	C130.455200,90.307892 130.856323,90.050789 130.957550,89.448242 
M165.116302,96.385933 
	C165.136185,96.152344 165.156067,95.918755 165.175949,95.685165 
	C165.043655,95.681335 164.911377,95.677513 164.779083,95.673683 
	C164.787506,95.908264 164.795929,96.142838 165.116302,96.385933 
z"/>
<path fill="#1CA63F" opacity="1.000000" stroke="none" 
	d="
M79.897949,100.681427 
	C80.770912,99.106941 81.249214,96.829895 82.585083,96.079468 
	C88.401489,92.812149 94.449364,89.951820 100.458488,87.037109 
	C101.610718,86.478226 102.967041,86.340149 104.801910,86.290405 
	C107.343864,89.166321 111.368454,90.504372 110.364349,94.987442 
	C110.267792,95.418533 111.850655,96.552368 112.809608,96.838997 
	C118.083244,98.415283 120.808777,101.849648 121.940613,106.687042 
	C123.241203,108.757843 124.541794,110.828644 125.842377,112.899445 
	C124.089157,113.469009 122.335930,114.038574 120.000565,114.800995 
	C118.914474,115.263519 118.410522,115.533195 117.906563,115.802864 
	C117.103905,116.007576 116.301254,116.212280 114.866440,116.632736 
	C110.020187,118.498932 105.806091,120.149368 101.591995,121.799812 
	C100.395897,122.067619 99.199791,122.335419 97.562164,122.333588 
	C91.379745,114.936440 85.638847,107.808937 79.897949,100.681427 
z"/>
<path fill="#1B9E3C" opacity="1.000000" stroke="none" 
	d="
M72.952980,118.832016 
	C70.909065,116.247513 68.865150,113.663002 66.714333,110.943314 
	C68.369774,108.738487 70.232979,106.256927 72.035065,103.399765 
	C72.149658,103.004440 72.325378,102.984726 73.103935,102.993347 
	C74.549698,102.728546 75.392632,102.435410 76.235558,102.142273 
	C76.635246,102.053276 77.034943,101.964279 77.912949,102.122864 
	C81.090462,104.224594 81.277420,106.643173 79.970032,109.397476 
	C82.420189,110.436577 85.027634,111.222717 87.260536,112.611206 
	C88.566063,113.423004 89.280952,115.191223 90.248413,116.538597 
	C91.791306,118.687340 93.323257,120.843925 94.859833,122.997200 
	C90.051735,125.083649 85.243645,127.170090 80.095383,129.015213 
	C78.955429,127.512390 78.155640,126.250893 77.302834,124.709679 
	C75.817543,122.563988 74.385262,120.698006 72.952980,118.832016 
z"/>
<path fill="#1FA342" opacity="1.000000" stroke="none" 
	d="
M120.654259,79.145973 
	C121.104919,90.590385 128.274277,97.275673 137.153030,102.768265 
	C139.248001,104.064262 141.446884,105.192299 143.654236,106.864334 
	C143.467285,107.525742 143.228729,107.725945 142.994812,107.931686 
	C141.872864,108.173859 140.750900,108.416031 138.978363,108.749008 
	C137.078964,108.311920 135.830170,107.784027 134.454788,107.202637 
	C133.858704,108.536476 133.364059,109.643326 132.869431,110.750175 
	C131.856064,110.835396 130.842682,110.920609 129.317291,110.655693 
	C126.306686,106.774773 124.002357,103.084557 121.265259,99.749519 
	C116.851387,94.371376 112.152328,89.227287 107.573738,83.984329 
	C111.812927,82.388817 116.052116,80.793304 120.654259,79.145973 
M120.033791,90.294670 
	C119.826859,90.060699 119.596558,89.852600 119.086723,89.262726 
	C118.868385,89.025375 118.621719,88.822479 118.086098,88.253212 
	C117.866928,88.019905 117.620590,87.820099 117.093414,87.237244 
	C116.877029,86.984055 116.612907,86.799019 116.007629,86.321159 
	C115.801628,86.086647 115.572884,85.876945 114.968307,85.369156 
	C114.556480,85.411324 114.144646,85.453484 113.732819,85.495651 
	C114.074409,85.750969 114.416000,86.006287 115.050629,86.623291 
	C115.261223,86.854195 115.497284,87.055168 116.028305,87.631859 
	C116.244919,87.880577 116.502083,88.075897 117.076317,88.605103 
	C117.277359,88.857559 117.519585,89.060974 118.078926,89.603264 
	C118.279701,89.856079 118.521713,90.059937 119.084312,90.587372 
	C119.288071,90.825233 119.521286,91.029457 120.050629,91.595558 
	C120.260468,91.838074 120.502632,92.042252 121.042953,92.603882 
	C121.252632,92.846176 121.494087,93.051003 122.035690,93.612541 
	C122.246811,93.853645 122.489662,94.056839 122.986443,94.830971 
	C124.251144,96.291367 125.515839,97.751770 127.008614,99.774094 
	C127.304565,100.779007 127.600525,101.783920 127.896477,102.788834 
	C128.522186,102.150543 129.147873,101.512253 129.773575,100.873962 
	C128.965134,100.117203 128.156693,99.360451 127.229004,97.946098 
	C125.921242,96.527184 124.613472,95.108276 123.037445,93.297356 
	C122.855995,93.027397 122.622368,92.814774 122.058060,92.274796 
	C121.867378,92.011459 121.627037,91.806282 121.057892,91.270515 
	C120.867546,91.002716 120.624443,90.797363 120.033791,90.294670 
M130.715027,104.888580 
	C131.318649,105.351028 131.922256,105.813477 132.525879,106.275925 
	C132.698944,105.850792 132.872025,105.425659 133.045090,105.000526 
	C132.192169,104.786461 131.339249,104.572388 130.715027,104.888580 
z"/>
<path fill="#102815" opacity="1.000000" stroke="none" 
	d="
M107.306122,84.055176 
	C112.152328,89.227287 116.851387,94.371376 121.265259,99.749519 
	C124.002357,103.084557 126.306686,106.774773 128.937378,110.619232 
	C128.208359,111.567513 127.347229,112.202126 126.164238,112.868088 
	C124.541794,110.828644 123.241203,108.757843 121.940613,106.687042 
	C120.808777,101.849648 118.083244,98.415283 112.809608,96.838997 
	C111.850655,96.552368 110.267792,95.418533 110.364349,94.987442 
	C111.368454,90.504372 107.343864,89.166321 105.183014,86.306343 
	C105.673790,85.401878 106.356148,84.763947 107.306122,84.055176 
z"/>
<path fill="#1B9D3D" opacity="1.000000" stroke="none" 
	d="
M66.881760,126.174911 
	C68.230453,128.418823 69.579147,130.662750 70.614136,133.303009 
	C69.778534,133.937592 69.256653,134.175812 68.734779,134.414032 
	C65.069618,135.138184 61.404457,135.862350 57.446594,136.059265 
	C56.804089,134.079636 56.454277,132.627289 56.452164,131.095337 
	C60.160496,129.402130 63.521126,127.788521 66.881760,126.174911 
z"/>
<path fill="#1C9F3E" opacity="1.000000" stroke="none" 
	d="
M60.986172,117.756966 
	C61.760822,118.759415 62.535477,119.761871 63.635483,121.153473 
	C64.110382,121.798172 64.323364,121.978981 64.599792,122.085045 
	C64.599792,122.085045 64.769737,122.554962 64.839317,123.121109 
	C61.929764,125.791458 58.950630,127.895660 55.599136,130.014206 
	C53.502869,128.652283 51.778961,127.276001 50.197395,125.544144 
	C53.888550,122.711365 57.437363,120.234161 60.986172,117.756966 
z"/>
<path fill="#142D19" opacity="1.000000" stroke="none" 
	d="
M95.284088,122.958229 
	C93.323257,120.843925 91.791306,118.687340 90.248413,116.538597 
	C89.280952,115.191223 88.566063,113.423004 87.260536,112.611206 
	C85.027634,111.222717 82.420189,110.436577 79.970032,109.397476 
	C81.277420,106.643173 81.090462,104.224594 78.218979,102.097061 
	C78.439659,101.542793 78.832619,101.261887 79.561768,100.831207 
	C85.638847,107.808937 91.379745,114.936440 97.259567,122.378929 
	C96.835121,122.769028 96.271736,122.844147 95.284088,122.958229 
z"/>
<path fill="#101110" opacity="1.000000" stroke="none" 
	d="
M64.985092,122.065269 
	C64.323364,121.978981 64.110382,121.798172 63.889988,121.341576 
	C64.514099,119.689934 65.209053,118.239334 65.949890,116.395409 
	C65.995773,116.002083 66.070869,115.926567 66.070869,115.926559 
	C66.586746,116.137848 67.102623,116.349136 67.907028,117.085014 
	C71.141441,121.402298 74.087318,125.194984 77.221451,129.133392 
	C77.646950,129.493164 77.854034,129.733215 78.030983,129.999252 
	C79.714096,134.218765 81.397209,138.438263 83.608498,143.981888 
	C81.408051,142.809875 80.218941,142.588791 79.869492,141.925400 
	C76.989731,136.458435 74.179169,130.950500 71.531502,125.367775 
	C70.226250,122.615593 68.480904,121.198303 64.985092,122.065269 
z"/>
<path fill="#080A0A" opacity="1.000000" stroke="none" 
	d="
M143.110596,108.268112 
	C143.228729,107.725945 143.467285,107.525742 143.848969,107.143173 
	C144.444595,106.905067 144.901718,106.854866 145.949081,106.701096 
	C147.008423,106.359169 147.477524,106.120811 147.946625,105.882446 
	C149.721451,105.546494 151.496277,105.210548 153.906052,104.750641 
	C155.008255,104.376602 155.475525,104.126511 155.942780,103.876419 
	C156.406815,103.848267 156.870834,103.820107 157.936066,103.705093 
	C159.013687,103.387215 159.490097,103.156204 159.966522,102.925201 
	C161.005463,102.827507 162.044418,102.729813 163.474655,102.594299 
	C162.922897,103.545601 162.153687,104.878670 161.004303,105.459572 
	C157.508179,107.226555 153.983749,109.192375 150.233002,110.100571 
	C148.140854,110.607162 145.577423,109.167267 143.110596,108.268112 
z"/>
<path fill="#18251B" opacity="1.000000" stroke="none" 
	d="
M50.055050,125.899734 
	C51.778961,127.276001 53.502869,128.652283 55.630089,130.308197 
	C56.057087,130.783524 56.080776,130.979233 56.104465,131.174927 
	C56.454277,132.627289 56.804089,134.079636 57.189774,135.833801 
	C57.225647,137.437561 57.225647,138.739532 57.225647,140.388901 
	C53.900955,136.539230 50.768333,132.911972 47.327370,129.129822 
	C47.019032,128.974960 47.014046,129.001175 47.038158,128.664780 
	C48.059864,127.518829 49.057457,126.709282 50.055050,125.899734 
z"/>
<path fill="#080A0A" opacity="1.000000" stroke="none" 
	d="
M101.936890,121.948151 
	C105.806091,120.149368 110.020187,118.498932 114.618599,116.825607 
	C113.466431,121.535408 110.392639,122.814537 101.936890,121.948151 
z"/>
<path fill="#080A0A" opacity="1.000000" stroke="none" 
	d="
M67.780746,141.533493 
	C66.265167,141.867508 65.071579,142.164230 63.877987,142.460953 
	C63.718182,141.923355 63.558380,141.385757 63.398575,140.848160 
	C67.223549,139.602600 71.048523,138.357040 74.873497,137.111481 
	C75.110603,137.807175 75.347702,138.502884 75.584808,139.198578 
	C73.090782,139.964462 70.596756,140.730331 67.780746,141.533493 
z"/>
<path fill="#0E4B1C" opacity="1.000000" stroke="none" 
	d="
M56.452164,131.095337 
	C56.080776,130.979233 56.057087,130.783524 56.002449,130.293854 
	C58.950630,127.895660 61.929764,125.791458 64.964142,123.337547 
	C65.602989,123.837784 66.186584,124.687737 66.825966,125.856300 
	C63.521126,127.788521 60.160496,129.402130 56.452164,131.095337 
z"/>
<path fill="#080A0A" opacity="1.000000" stroke="none" 
	d="
M133.144531,110.998589 
	C133.364059,109.643326 133.858704,108.536476 134.454788,107.202637 
	C135.830170,107.784027 137.078964,108.311920 138.664734,108.898087 
	C138.166504,112.218956 136.113968,112.514984 133.144531,110.998589 
z"/>
<path fill="#080A0A" opacity="1.000000" stroke="none" 
	d="
M52.317223,143.904480 
	C51.074768,142.230484 50.117958,140.459991 49.153358,138.340347 
	C52.447979,138.652252 54.078171,140.307220 52.317223,143.904480 
z"/>
<path fill="#1FA342" opacity="1.000000" stroke="none" 
	d="
M167.372238,100.977020 
	C168.836700,100.188507 170.667358,99.410027 172.763916,98.852364 
	C171.266022,99.711143 169.502243,100.349106 167.372238,100.977020 
z"/>
<path fill="#080A0A" opacity="1.000000" stroke="none" 
	d="
M95.790848,130.648895 
	C96.701706,130.369232 97.485626,130.341461 98.269554,130.313705 
	C97.932442,130.958939 97.595329,131.604156 97.258224,132.249390 
	C96.726791,131.799850 96.195351,131.350327 95.790848,130.648895 
z"/>
<path fill="#080A0A" opacity="1.000000" stroke="none" 
	d="
M97.928001,148.935791 
	C98.598518,147.638229 99.269035,146.340652 99.939545,145.043091 
	C100.399612,145.333359 100.859680,145.623627 101.319748,145.913910 
	C100.444626,146.913956 99.569496,147.914017 98.348907,148.960922 
	C98.003448,149.007782 97.928001,148.935791 97.928001,148.935791 
z"/>
<path fill="#1FA342" opacity="1.000000" stroke="none" 
	d="
M178.289307,96.847473 
	C179.026184,95.934929 180.083298,94.986061 181.475403,94.016975 
	C180.743454,94.934883 179.676483,95.873016 178.289307,96.847473 
z"/>
<path fill="#080A0A" opacity="1.000000" stroke="none" 
	d="
M91.025017,153.814789 
	C91.112106,154.340744 90.980911,154.858109 90.849716,155.375458 
	C90.448708,155.238907 90.047699,155.102371 89.646690,154.965820 
	C90.033371,154.579269 90.420052,154.192719 91.025017,153.814789 
z"/>
<path fill="#080A0A" opacity="1.000000" stroke="none" 
	d="
M78.495262,129.893829 
	C77.854034,129.733215 77.646950,129.493164 77.227600,128.636932 
	C77.148941,126.992943 77.252396,125.991165 77.355843,124.989388 
	C78.155640,126.250893 78.955429,127.512390 79.807938,129.127319 
	C79.560287,129.583298 79.259918,129.685867 78.495262,129.893829 
z"/>
<path fill="#080A0A" opacity="1.000000" stroke="none" 
	d="
M49.109974,136.849380 
	C48.612343,136.844711 48.271137,136.624908 47.543522,136.046600 
	C47.077843,135.484787 46.998573,135.281479 46.919300,135.078156 
	C46.919300,135.078156 47.071239,135.008194 47.138824,134.957092 
	C47.893078,135.482086 48.579739,136.058167 49.109974,136.849380 
z"/>
<path fill="#080A0A" opacity="1.000000" stroke="none" 
	d="
M98.039421,149.045532 
	C97.591721,149.678680 97.108047,150.274078 96.315430,150.941605 
	C96.006485,151.013733 95.956100,150.975952 95.956100,150.975952 
	C96.423676,150.363235 96.891251,149.750534 97.643417,149.036804 
	C97.928001,148.935791 98.003448,149.007782 98.039421,149.045532 
z"/>
<path fill="#080A0A" opacity="1.000000" stroke="none" 
	d="
M68.926254,134.649017 
	C69.256653,134.175812 69.778534,133.937592 70.584015,133.642807 
	C70.284317,134.018845 69.701019,134.451431 68.926254,134.649017 
z"/>
<path fill="#080A0A" opacity="1.000000" stroke="none" 
	d="
M118.095695,115.982712 
	C118.410522,115.533195 118.914474,115.263519 119.709793,114.989166 
	C119.429039,115.377167 118.856934,115.769867 118.095695,115.982712 
z"/>
<path fill="#080A0A" opacity="1.000000" stroke="none" 
	d="
M96.029724,151.034988 
	C95.936165,151.341766 95.819366,151.627274 95.702576,151.912796 
	C95.704826,151.678543 95.707085,151.444275 95.832718,151.092987 
	C95.956100,150.975952 96.006485,151.013733 96.029724,151.034988 
z"/>
<path fill="#1FA342" opacity="1.000000" stroke="none" 
	d="
M135.901123,82.014984 
	C133.719254,80.550301 131.537399,79.085617 129.177979,77.350250 
	C141.203857,73.067513 153.643219,73.097214 166.158463,75.056953 
	C168.231995,75.381645 170.203354,76.358841 172.585999,77.094589 
	C173.669312,78.194740 174.388550,79.234810 175.226074,80.570877 
	C173.154297,81.236092 170.964203,81.605309 168.298767,81.620285 
	C167.285065,80.667442 166.843994,79.695473 166.193817,79.526054 
	C155.820511,76.822998 145.664261,77.126030 135.901123,82.014984 
z"/>
<path fill="#1FA342" opacity="1.000000" stroke="none" 
	d="
M125.678528,77.971062 
	C125.859009,79.072098 125.679535,80.119339 125.409523,81.694839 
	C124.136986,80.766983 123.284508,80.145409 122.220474,79.298882 
	C123.112129,78.688385 124.215347,78.302826 125.678528,77.971062 
z"/>
<path fill="#142D19" opacity="1.000000" stroke="none" 
	d="
M75.891891,102.116287 
	C75.392632,102.435410 74.549698,102.728546 73.365120,102.947151 
	C73.865059,102.611855 74.706642,102.351074 75.891891,102.116287 
z"/>
<path fill="#142D19" opacity="1.000000" stroke="none" 
	d="
M71.794128,102.654068 
	C71.579865,102.704903 71.316116,102.528076 71.040359,102.088303 
	C71.323311,101.958855 71.562073,102.159203 71.794128,102.654068 
z"/>
<path fill="#080A0A" opacity="1.000000" stroke="none" 
	d="
M50.197395,125.544144 
	C49.057457,126.709282 48.059864,127.518829 47.046463,128.657532 
	C43.664062,126.453308 46.472752,123.408516 47.602791,122.111023 
	C50.297661,119.016823 54.050579,116.844116 57.690735,114.153534 
	C58.934704,115.070511 59.864105,116.133186 60.889839,117.476410 
	C57.437363,120.234161 53.888550,122.711365 50.197395,125.544144 
z"/>
<path fill="#0F1512" opacity="1.000000" stroke="none" 
	d="
M77.302834,124.709679 
	C77.252396,125.991165 77.148941,126.992943 77.039337,128.491196 
	C74.087318,125.194984 71.141441,121.402298 68.108116,117.282288 
	C69.402740,117.531517 70.784805,118.108086 72.559929,118.758331 
	C74.385262,120.698006 75.817543,122.563988 77.302834,124.709679 
z"/>
<path fill="#101110" opacity="1.000000" stroke="none" 
	d="
M63.107113,101.975754 
	C64.667854,102.422371 66.228592,102.868988 68.317619,103.466782 
	C67.210251,104.472900 66.421638,105.189392 65.307304,105.947571 
	C64.981575,105.989265 64.902893,105.905487 64.902893,105.905487 
	C64.391159,105.080650 63.879417,104.255806 63.201859,102.949142 
	C63.036034,102.467308 63.107113,101.975754 63.107113,101.975754 
z"/>
<path fill="#101110" opacity="1.000000" stroke="none" 
	d="
M58.001389,112.001526 
	C58.500347,111.134140 58.997917,110.265228 59.495487,109.396324 
	C59.847794,109.694122 60.200100,109.991920 60.552406,110.289719 
	C59.917862,110.843681 59.283318,111.397644 58.322853,111.974304 
	C57.996929,111.997009 58.000000,112.000000 58.001389,112.001526 
z"/>
<path fill="#383838" opacity="1.000000" stroke="none" 
	d="
M62.905689,101.714798 
	C63.107113,101.975754 63.036034,102.467308 63.014244,102.714401 
	C61.728001,102.199997 60.463543,101.438507 59.112366,100.316681 
	C59.025642,99.956345 59.242889,99.732536 59.242889,99.732529 
	C60.396683,100.306305 61.550472,100.880074 62.905689,101.714798 
z"/>
<path fill="#101110" opacity="1.000000" stroke="none" 
	d="
M65.957504,116.039116 
	C65.165932,115.445160 64.412628,114.814171 63.659328,114.183182 
	C63.898598,113.953316 64.137871,113.723457 64.377136,113.493599 
	C64.896423,114.119621 65.415710,114.745651 66.002930,115.649124 
	C66.070869,115.926567 65.995773,116.002083 65.957504,116.039116 
z"/>
<path fill="#383838" opacity="1.000000" stroke="none" 
	d="
M55.877804,98.142776 
	C55.470284,97.668365 55.062767,97.193954 54.655247,96.719543 
	C55.117279,96.917603 55.579311,97.115669 56.044044,97.641579 
	C56.046745,97.969421 55.877804,98.142776 55.877804,98.142776 
z"/>
<path fill="#101110" opacity="1.000000" stroke="none" 
	d="
M65.018845,106.033005 
	C64.591301,106.369301 64.126488,106.661865 63.661674,106.954437 
	C63.930710,106.644241 64.199753,106.334053 64.685837,105.964676 
	C64.902893,105.905487 64.981575,105.989265 65.018845,106.033005 
z"/>
<path fill="#383838" opacity="1.000000" stroke="none" 
	d="
M49.875988,93.142258 
	C49.506508,92.640305 49.137028,92.138344 48.767544,91.636383 
	C49.243874,91.823730 49.720203,92.011078 50.142967,92.561035 
	C50.089405,92.923645 49.875988,93.142258 49.875988,93.142258 
z"/>
<path fill="#383838" opacity="1.000000" stroke="none" 
	d="
M58.915352,100.066605 
	C58.727859,99.943077 58.650661,99.709290 58.573463,99.475494 
	C58.711178,99.481537 58.848892,99.487572 59.114746,99.613075 
	C59.242889,99.732536 59.025642,99.956345 58.915352,100.066605 
z"/>
<path fill="#383838" opacity="1.000000" stroke="none" 
	d="
M56.133400,97.884933 
	C56.288063,98.007736 56.356068,98.215034 56.424076,98.422325 
	C56.308926,98.404915 56.193779,98.387512 55.978218,98.256439 
	C55.877804,98.142776 56.046745,97.969421 56.133400,97.884933 
z"/>
<path fill="#383838" opacity="1.000000" stroke="none" 
	d="
M52.332951,94.665184 
	C52.398209,94.922424 52.463467,95.179665 52.528725,95.436905 
	C52.384880,95.426460 52.241032,95.416023 52.094402,95.153473 
	C52.091618,94.901375 52.332951,94.665184 52.332951,94.665184 
z"/>
<path fill="#383838" opacity="1.000000" stroke="none" 
	d="
M51.301514,93.682602 
	C51.602745,93.816002 51.852207,94.014458 52.191429,94.471588 
	C52.332951,94.665184 52.091618,94.901375 51.969612,95.019440 
	C51.563213,94.983818 51.317909,94.782494 51.095154,94.220627 
	C51.078609,93.907730 51.301514,93.682602 51.301514,93.682602 
z"/>
<path fill="#383838" opacity="1.000000" stroke="none" 
	d="
M50.966049,94.019188 
	C50.576340,93.976753 50.337479,93.777069 50.006447,93.336922 
	C49.875988,93.142258 50.089405,92.923645 50.200203,92.812668 
	C50.569412,92.878670 50.802166,93.084648 51.155388,93.501106 
	C51.301514,93.682602 51.078609,93.907730 50.966049,94.019188 
z"/>
<path fill="#B22003" opacity="1.000000" stroke="none" 
	d="
M51.880394,148.850174 
	C51.791683,148.666733 51.800575,148.236267 51.922852,147.940430 
	C52.016815,148.251099 51.997402,148.427124 51.880394,148.850174 
z"/>
<path fill="#07080A" opacity="1.000000" stroke="none" 
	d="
M74.990616,146.005646 
	C74.980316,146.013779 74.748260,145.844147 74.748260,145.844147 
	C74.748260,145.844147 74.932152,145.847534 74.974319,145.911591 
	C75.016479,145.975662 75.000908,145.997498 74.990616,146.005646 
z"/>
<path fill="#FAD607" opacity="1.000000" stroke="none" 
	d="
M46.578506,135.046310 
	C46.998573,135.281479 47.077843,135.484787 47.359856,135.947510 
	C49.187199,145.486771 46.436859,149.694016 37.374287,152.006760 
	C34.473663,152.746979 31.635571,153.732239 28.768864,154.605362 
	C28.726919,154.454987 28.642191,154.300964 28.654680,154.155243 
	C28.668016,153.999680 28.773138,153.851974 28.943439,153.425537 
	C32.078510,150.686005 35.108334,148.221771 39.335075,144.784042 
	C35.253159,144.976974 32.578979,145.103378 28.282192,145.306488 
	C31.328829,143.183594 33.288319,141.818222 35.247807,140.452835 
	C34.995201,140.086212 34.742592,139.719589 34.489986,139.352966 
	C30.124201,138.883575 25.758413,138.414185 21.269915,137.588623 
	C23.707603,136.328339 26.268005,135.424225 29.065830,134.220123 
	C29.303251,133.920135 29.477489,133.918243 29.543821,133.867157 
	C32.891190,133.204987 36.172230,132.593887 40.097878,132.152100 
	C42.124966,133.150177 43.507439,133.978958 44.889908,134.807755 
	C45.339176,134.876663 45.788445,134.945572 46.578506,135.046310 
M38.458069,133.496567 
	C38.458069,133.496567 38.516701,133.469818 38.458069,133.496567 
M36.474888,134.496826 
	C36.474888,134.496826 36.519012,134.481735 36.474888,134.496826 
z"/>
<path fill="#DD3201" opacity="1.000000" stroke="none" 
	d="
M25.238617,152.809967 
	C25.085253,153.467194 24.769361,153.951920 24.453476,154.436630 
	C24.167877,154.137543 23.882275,153.838455 23.596672,153.539383 
	C24.089809,153.238739 24.582951,152.938095 25.238617,152.809967 
z"/>
<path fill="#670D09" opacity="1.000000" stroke="none" 
	d="
M44.826141,134.488007 
	C43.507439,133.978958 42.124966,133.150177 40.520111,132.114853 
	C40.222527,131.179657 40.147331,130.451019 40.043701,129.358475 
	C41.597641,130.719147 43.180008,132.443710 44.826141,134.488007 
z"/>
<path fill="#670D09" opacity="1.000000" stroke="none" 
	d="
M39.835136,128.802521 
	C39.667606,129.028793 39.358440,128.963303 38.894676,128.628632 
	C39.059494,128.364441 39.377300,128.414871 39.835136,128.802521 
z"/>
<path fill="#C1C3BC" opacity="1.000000" stroke="none" 
	d="
M178.099945,81.981102 
	C178.376556,81.303436 178.609695,80.629349 178.842850,79.955261 
	C180.571686,81.337654 182.692001,82.452187 183.887543,84.199486 
	C184.646240,85.308350 184.029358,87.358429 182.829636,89.092598 
	C181.465668,86.770622 180.101715,84.448647 178.401459,82.012291 
	C178.065186,81.897911 178.056488,81.984680 178.099945,81.981102 
z"/>
<path fill="#000000" opacity="1.000000" stroke="none" 
	d="
M38.792866,157.725876 
	C38.951626,157.667892 39.312805,157.841309 39.551826,158.203583 
	C39.284874,158.247375 39.140083,158.102325 38.792866,157.725876 
z"/>
<path fill="#F59C07" opacity="1.000000" stroke="none" 
	d="
M14.961031,148.263733 
	C15.373751,147.601303 15.722077,147.181656 16.134773,146.486923 
	C19.834175,144.743011 23.469208,143.274170 27.460793,141.700699 
	C27.214758,147.466446 22.126232,147.102936 17.956764,148.689514 
	C17.636650,148.917603 17.216541,149.091293 16.776993,149.213745 
	C16.060564,149.531616 15.783685,149.727051 15.506804,149.922485 
	C15.260983,149.725800 14.982898,149.653214 14.469627,149.778870 
	C14.476686,149.404175 14.686662,148.955338 14.961031,148.263733 
z"/>
<path fill="#9A1303" opacity="1.000000" stroke="none" 
	d="
M15.747785,149.865097 
	C15.783685,149.727051 16.060564,149.531616 16.590542,149.343735 
	C16.592651,149.566971 16.307693,149.719101 15.747785,149.865097 
z"/>
<path fill="#D5E9CD" opacity="1.000000" stroke="none" 
	d="
M136.216827,82.300774 
	C145.664261,77.126030 155.820511,76.822998 166.193817,79.526054 
	C166.843994,79.695473 167.285065,80.667442 167.886093,81.622391 
	C163.890854,82.260071 159.835327,82.727867 155.774475,82.779915 
	C149.362381,82.862106 142.946701,82.665291 136.216827,82.300774 
z"/>
<path fill="#1FA342" opacity="1.000000" stroke="none" 
	d="
M131.107498,89.620956 
	C130.856323,90.050789 130.455200,90.307892 130.054077,90.565002 
	C129.958252,90.299446 129.862411,90.033897 129.766586,89.768341 
	C130.163574,89.661644 130.560562,89.554947 131.107498,89.620956 
z"/>
<path fill="#1FA342" opacity="1.000000" stroke="none" 
	d="
M147.773605,105.743835 
	C147.477524,106.120811 147.008423,106.359169 146.270966,106.573418 
	C146.535294,106.234612 147.067932,105.919907 147.773605,105.743835 
z"/>
<path fill="#1FA342" opacity="1.000000" stroke="none" 
	d="
M164.960327,96.381676 
	C164.795929,96.142838 164.787506,95.908264 164.779083,95.673683 
	C164.911377,95.677513 165.043655,95.681335 165.175949,95.685165 
	C165.156067,95.918755 165.136185,96.152344 164.960327,96.381676 
z"/>
<path fill="#1FA342" opacity="1.000000" stroke="none" 
	d="
M159.794281,102.780197 
	C159.490097,103.156204 159.013687,103.387215 158.267456,103.592346 
	C158.539124,103.256042 159.080582,102.945618 159.794281,102.780197 
z"/>
<path fill="#1FA342" opacity="1.000000" stroke="none" 
	d="
M155.766891,103.738922 
	C155.475525,104.126511 155.008255,104.376602 154.270111,104.610229 
	C154.529816,104.262985 155.060410,103.932213 155.766891,103.738922 
z"/>
<path fill="#145421" opacity="1.000000" stroke="none" 
	d="
M123.305710,93.689362 
	C124.613472,95.108276 125.921242,96.527184 127.147835,98.428070 
	C127.066666,98.910049 126.780540,99.212166 126.780540,99.212166 
	C125.515839,97.751770 124.251144,96.291367 123.010788,94.393433 
	C123.035133,93.955902 123.305710,93.689362 123.305710,93.689362 
z"/>
<path fill="#145421" opacity="1.000000" stroke="none" 
	d="
M130.600677,104.623451 
	C131.339249,104.572388 132.192169,104.786461 133.045090,105.000526 
	C132.872025,105.425659 132.698944,105.850792 132.525879,106.275925 
	C131.922256,105.813477 131.318649,105.351028 130.600677,104.623451 
z"/>
<path fill="#145421" opacity="1.000000" stroke="none" 
	d="
M127.207458,98.756866 
	C128.156693,99.360451 128.965134,100.117203 129.773575,100.873962 
	C129.147873,101.512253 128.522186,102.150543 127.896477,102.788834 
	C127.600525,101.783920 127.304565,100.779007 126.894577,99.493134 
	C126.780540,99.212166 127.066666,98.910049 127.207458,98.756866 
z"/>
<path fill="#145421" opacity="1.000000" stroke="none" 
	d="
M114.757591,86.261597 
	C114.416000,86.006287 114.074409,85.750969 113.732819,85.495651 
	C114.144646,85.453484 114.556480,85.411324 115.003433,85.672531 
	C115.038559,85.975899 114.757591,86.261597 114.757591,86.261597 
z"/>
<path fill="#145421" opacity="1.000000" stroke="none" 
	d="
M116.799797,88.217819 
	C116.502083,88.075897 116.244919,87.880577 116.030327,87.292694 
	C116.032349,86.953537 116.301041,86.682144 116.301041,86.682144 
	C116.612907,86.799019 116.877029,86.984055 117.083069,87.586182 
	C117.072723,87.935112 116.799797,88.217819 116.799797,88.217819 
z"/>
<path fill="#145421" opacity="1.000000" stroke="none" 
	d="
M115.179977,85.833977 
	C115.572884,85.876945 115.801628,86.086647 116.154335,86.501648 
	C116.301041,86.682144 116.032349,86.953537 115.895584,87.089874 
	C115.497284,87.055168 115.261223,86.854195 114.904114,86.442444 
	C114.757591,86.261597 115.038559,85.975899 115.179977,85.833977 
z"/>
<path fill="#145421" opacity="1.000000" stroke="none" 
	d="
M122.899681,94.089012 
	C122.489662,94.056839 122.246811,93.853645 122.044037,93.275963 
	C122.052391,92.939384 122.336555,92.659470 122.336555,92.659470 
	C122.622368,92.814774 122.855995,93.027397 123.171577,93.493362 
	C123.305710,93.689362 123.035133,93.955902 122.899681,94.089012 
z"/>
<path fill="#145421" opacity="1.000000" stroke="none" 
	d="
M117.209908,87.794449 
	C117.620590,87.820099 117.866928,88.019905 118.078735,88.594925 
	C118.071381,88.936630 117.803001,89.215340 117.803001,89.215340 
	C117.519585,89.060974 117.277359,88.857559 116.938057,88.411461 
	C116.799797,88.217819 117.072723,87.935112 117.209908,87.794449 
z"/>
<path fill="#145421" opacity="1.000000" stroke="none" 
	d="
M121.909851,93.078873 
	C121.494087,93.051003 121.252632,92.846176 121.050262,92.269035 
	C121.057579,91.934189 121.337036,91.659264 121.337036,91.659264 
	C121.627037,91.806282 121.867378,92.011459 122.197311,92.467133 
	C122.336555,92.659470 122.052391,92.939384 121.909851,93.078873 
z"/>
<path fill="#145421" opacity="1.000000" stroke="none" 
	d="
M118.804962,90.214851 
	C118.521713,90.059937 118.279701,89.856079 117.940964,89.409302 
	C117.803001,89.215340 118.071381,88.936630 118.209045,88.795334 
	C118.621719,88.822479 118.868385,89.025375 119.079636,89.601990 
	C119.072548,89.941254 118.804962,90.214851 118.804962,90.214851 
z"/>
<path fill="#145421" opacity="1.000000" stroke="none" 
	d="
M120.917358,92.071144 
	C120.502632,92.042252 120.260468,91.838074 120.054710,91.261467 
	C120.058792,90.927376 120.328575,90.654442 120.328575,90.654442 
	C120.624443,90.797363 120.867546,91.002716 121.197464,91.464890 
	C121.337036,91.659264 121.057579,91.934189 120.917358,92.071144 
z"/>
<path fill="#145421" opacity="1.000000" stroke="none" 
	d="
M119.207718,89.805817 
	C119.596558,89.852600 119.826859,90.060699 120.181183,90.474556 
	C120.328575,90.654442 120.058792,90.927376 119.921371,91.063705 
	C119.521286,91.029457 119.288071,90.825233 118.944641,90.401108 
	C118.804962,90.214851 119.072548,89.941254 119.207718,89.805817 
z"/>
<path fill="#FAB507" opacity="1.000000" stroke="none" 
	d="
M38.487385,133.483185 
	C38.516701,133.469818 38.458069,133.496567 38.487385,133.483185 
z"/>
<path fill="#FAB507" opacity="1.000000" stroke="none" 
	d="
M36.496948,134.489288 
	C36.519012,134.481735 36.474888,134.496826 36.496948,134.489288 
z"/>
</svg>